<?xml version="1.0" encoding="UTF-8" standalone="no"?>
<!-- Created with Inkscape (http://www.inkscape.org/) -->
<svg id="svg2" xmlns:rdf="http://www.w3.org/1999/02/22-rdf-syntax-ns#" xmlns="http://www.w3.org/2000/svg" height="112.89mm" width="84.667mm" version="1.1" xmlns:cc="http://creativecommons.org/ns#" xmlns:dc="http://purl.org/dc/elements/1.1/" viewBox="0 0 299.99999 400.00001">
 <metadata id="metadata7">
  <rdf:RDF>
   <cc:Work rdf:about="">
    <dc:format>image/svg+xml</dc:format>
    <dc:type rdf:resource="http://purl.org/dc/dcmitype/StillImage"/>
    <dc:title/>
   </cc:Work>
  </rdf:RDF>
 </metadata>
 <g id="layer1" transform="translate(-217.14 -320.93)">
  <path id="path3351" d="m217.14 520.93v-200h111.57c108.77 0 116.66 0.20459 114.95 2.9811-0.29938 0.4844-0.0213 1.2039 0.61783 1.599 0.8263 0.51068 0.97001-0.0473 0.49726-1.9309l-0.66489-2.6492h36.519 36.519v200 200h-150-150v-200zm79.021 182.82c-1.2672-1.0261-2.5375-1.6322-2.8229-1.3468-0.87876 0.87876 3.0038 4.5245 4.0982 3.8482 0.60619-0.37465 0.0824-1.402-1.2753-2.5014zm-4.036-5.5656c-0.0279-1.3687-1.8663-3.7017-2.4539-3.1142-0.78775 0.78775 0.46709 3.8642 1.5762 3.8642 0.49116 0 0.88612-0.3375 0.8777-0.75zm47.1-14.731c2.3882 0.52453 2.9177 0.30963 2.9303-1.1892 0.009-1.1098 0.30432-1.3983 0.75-0.73343 0.40408 0.60281 1.9906 1.4035 3.5256 1.7793 1.535 0.37581 2.5209 1.1201 2.191 1.654-0.32995 0.53387-0.12336 0.97068 0.4591 0.97068s1.059-0.34329 1.059-0.76287 0.96146-1.2071 2.1366-1.75c1.1751-0.54292 2.0347-1.3885 1.9102-1.879-0.12451-0.49053 1.1582-1.7685 2.8505-2.84 2.561-1.6215 2.9055-2.2683 2.0546-3.8581-1.2312-2.3004-2.2916-2.4104-3.9518-0.41001-0.68469 0.825-1.7523 1.4931-2.3724 1.4847-0.77782-0.0106-0.75621-0.25139 0.0697-0.7764 1.5856-1.008 0.35499-2.7442-2.4472-3.4524-1.5363-0.38829-2.25-0.12258-2.25 0.83772 0 0.77351-0.46973 1.4064-1.0438 1.4064-0.57411 0-0.91161-0.7875-0.75-1.75 0.23344-1.3903-0.32279-1.6927-2.7062-1.4713-2.1784 0.20239-2.6068 0.0179-1.5643-0.67378 1.1897-0.78931 1.2116-1.2226 0.12755-2.5287-1.5656-1.8864-4.5268-2.1665-3.4496-0.32622 0.40245 0.6875-0.53236 0.0125-2.0774-1.5s-3.4227-2.8062-4.1727-2.875-1.9261-0.19135-2.6136-0.27244c-0.6875-0.0811-1.1178-0.92484-0.95616-1.875 0.20806-1.2233-0.37574-1.7231-2-1.7122-1.8893 0.0126-2.0293 0.20054-0.79384 1.0655 1.1489 0.80437 0.91481 0.89419-1 0.38371-1.375-0.36656-2.9996-1.296-3.6102-2.0655-0.61069-0.76946-1.7437-1.399-2.5179-1.399-0.77419 0-3.0764-1.134-5.116-2.5199-2.8569-1.9413-3.56-2.1333-3.0622-0.83595 0.45724 1.1915 0.27782 1.4563-0.61355 0.90539-0.84641-0.52311-1.0443-1.9269-0.60315-4.2785 0.516-2.7505 0.21655-3.9683-1.3984-5.6874-1.1302-1.2031-2.6627-4.2066-3.4054-6.6745-1.1279-3.7478-1.1299-4.6931-0.0118-5.7375 0.88013-0.82217 1.3386-0.87424 1.3386-0.15202 0 0.60414 0.43679 0.8285 0.97063 0.49856 1.2566-0.77663 5.5527 1.4716 11.529 6.0332 3.7107 2.8324 4.9544 3.3401 5.6179 2.2932 0.7098-1.12 0.8547-1.1208 0.86746-0.005 0.0218 1.9064 4.1465 5.1022 6.5153 5.0481 1.4217-0.0325 1.5663-0.20624 0.5-0.601-3.2935-1.2193-3.9338-2.3379-2.7834-4.8627 0.60747-1.3332 1.5722-2.4241 2.144-2.4241 0.63013 0 0.56692 0.47256-0.16052 1.2-1.6227 1.6227-1.5113 2.8 0.26482 2.8 0.80565 0 1.9465 0.9 2.5352 2s1.5311 2 2.0942 2c0.56311 0 0.80197-0.35899 0.5308-0.79775s-0.0303-1.4513 0.53532-2.25c0.86852-1.2265 0.95035-1.205 0.52653 0.13843-0.90211 2.8596 0.75053 4.2763 3.2096 2.7515 1.3988-0.86734 2.4191-0.98839 2.884-0.34217 1.7874 2.4843 8.4862 0.85333 9.722-2.3671 0.40597-1.0579-0.18042-0.84467-1.7614 0.6406-2.4882 2.3377-4.7411 2.9205-4.7411 1.2266 0-0.55 0.525-1 1.1667-1 0.64166 0 0.87754-0.28913 0.52416-0.6425-0.35337-0.35338-1.3284-0.0733-2.1667 0.62244-0.96559 0.80137-1.5242 0.8718-1.5242 0.19219 0-1.572 2.9976-2.9855 5.142-2.4247 1.0219 0.26723 1.858-0.008 1.858-0.61171 0-0.60367-1.2224-1.4044-2.7165-1.7794-1.4941-0.37499-3.6316-1.538-4.75-2.5844-2.0253-1.895-2.0226-1.8985 0.6811-0.87547 1.7404 0.65854 2.9296 0.67923 3.3138 0.0577 0.35213-0.56977 1.2208-0.34787 2.1068 0.53821 0.82922 0.82922 2.1505 1.5077 2.9362 1.5077 1.2907 0 1.8685 1.2138 1.547 3.25-0.0651 0.4125 0.89408 0.74311 2.1316 0.73469 1.538-0.0105 1.8454-0.27204 0.97162-0.82656-0.92396-0.58633-0.55563-1.1405 1.3286-1.999 4.9776-2.2679 1.1432-4.779-8.5539-5.6019-3.0652-0.2601-6.7384-1.7405-11.5-4.6348-3.848-2.3389-7.6713-4.252-8.4963-4.2513s-2.85-0.82136-4.5-1.8268-4.125-2.3848-5.5-3.0652-2.8599-1.8091-3.2997-2.5081c-0.43983-0.69911-1.8758-1.2711-3.191-1.2711s-2.6694-0.45-3.0093-1c-0.33992-0.55-2.1399-1-4-1s-3.6601-0.45-4-1c-0.96242-1.5572-4.4954-1.1756-5.1604 0.55747-0.32871 0.85661-1.2146 1.3207-1.9686 1.0314-1.5674-0.60145-1.8949 1.9693-0.37096 2.9111 1.2364 0.76414 1.3174 2.5 0.11663 2.5-0.85797 0-2.4426-3.7394-2.2248-5.25 0.0595-0.4125-0.6836-0.75-1.6513-0.75-2.1615 0-4.5035 3.5199-3.8674 5.8126 0.2575 0.9281 0.7848 2.8124 1.1718 4.1874 0.38697 1.375 0.35054 2.1654-0.081 1.7564-0.43149-0.409-1.4472 0.20247-2.2572 1.3588-1.0426 1.4885-1.1472 2.3036-0.35813 2.7913 0.61297 0.37883 0.92862 1.6539 0.70145 2.8335-0.28481 1.4789-0.00006 1.9862 0.91729 1.6342 1.611-0.61821 2.9165 1.1957 1.9666 2.7326-0.47684 0.77153-0.94442 0.69581-1.5437-0.25-0.57525-0.90786-0.86475-0.96271-0.875-0.16578-0.008 0.65504 0.43469 1.4691 0.98469 1.809 0.55 0.33992 1 3.7112 1 7.4916 0 5.9945-0.2557 6.9548-1.9992 7.5081-1.5739 0.49954-1.7926 1.0207-1.0278 2.4497 1.2884 2.4073 4.0957 3.4057 5.4442 1.9361 0.80541-0.87769 0.65569-1.0304-0.58446-0.59592-1.6914 0.5925-3.5021-2.0042-2.2194-3.1828 0.36324-0.33378 0.86227-0.0416 1.1089 0.64936 0.24668 0.69093 0.86008 1.0019 1.3631 0.69098 0.87821-0.54276 1.3028 0.79083 1.0154 3.189-0.0749 0.62492 0.51185 1.3849 1.3039 1.6888 0.84547 0.32444 1.2322 1.3474 0.93671 2.4775-0.53836 2.0587 3.7095 6.1975 6.3609 6.1975 0.97746 0 1.2309 0.63534 0.79776 2-0.44327 1.3966-0.1797 2 0.87359 2 0.82961 0 1.7865-0.45 2.1264-1 1.0759-1.7408 3.6659-1.0816 4.2303 1.0767 0.55901 2.1377 3.9078 3.9233 7.3578 3.9233 1.8896 0 1.8974-0.096 0.22415-2.75l-1.7338-2.75 2.2108 1.905c1.2159 1.0477 2.2108 2.5064 2.2108 3.2415s0.9 1.8986 2 2.5856c1.1 0.68696 2 1.8158 2 2.5085 0 1.9137 1.5914 1.5066 3.128-0.80026 1.346-2.0207 1.4382-1.9911 4.872 1.564 2.6941 2.7893 3.5772 3.2496 3.835 1.9989 0.25566-1.2399 1.0256-1.4731 3.25-0.98456zm7.4852-1.405c-0.30127-0.48747 0.31351-1.1115 1.3662-1.3868 1.34-0.35042 1.7544-0.0846 1.3818 0.8863-0.6042 1.5745-1.9344 1.8168-2.7479 0.50051zm4.9297-3.1137c-0.33992-0.55-0.36648-1.0562-0.059-1.125 0.30746-0.0688 0.89652-0.1972 1.309-0.28544 0.4125-0.0882 1.875-0.77988 3.25-1.537l2.5-1.3766-2.5 2.6447c-2.7295 2.8875-3.5614 3.1979-4.5 1.6793zm-28-2c-0.33992-0.55 0.057-1 0.88197-1 0.825 0 1.7781 0.45 2.118 1 0.33992 0.55-0.057 1-0.88197 1-0.825 0-1.7781-0.45-2.118-1zm-12.5-3.059c0-0.58246 0.45-0.7809 1-0.44098s1 0.81648 1 1.059c0 0.24254-0.45 0.44098-1 0.44098s-1-0.47656-1-1.059zm-3.5-4.0048c-1.1-0.43756-1.4375-0.82719-0.75-0.86584 0.6875-0.0387 1.2785-1.0828 1.3134-2.3203 0.0628-2.2303 0.0718-2.2289 1.0286 0.16432 1.2709 3.179 0.84336 3.9905-1.592 3.0218zm-9.5-5.4952c0-0.85746-0.45-1.2809-1-0.94098-1.1031 0.68176-1.3841-0.78253-0.34888-1.8178 0.35812-0.35812 1.2438 0.12938 1.9682 1.0833 1.5918 2.0963 1.7258 3.2345 0.38068 3.2345-0.55 0-1-0.70156-1-1.559zm-6-17.5c0-0.58246 0.45-0.7809 1-0.44098s1 0.81648 1 1.059c0 0.24254-0.45 0.44098-1 0.44098s-1-0.47656-1-1.059zm47-4.334c0-0.21616 0.69837-0.661 1.5519-0.98855 0.88992-0.34149 1.2913-0.17385 0.94098 0.39301-0.58726 0.95021-2.4929 1.4054-2.4929 0.59554zm-43.921-2.1903c0.048-1.165 0.28494-1.4019 0.60416-0.60417 0.28888 0.72187 0.25335 1.5844-0.0789 1.9167-0.33229 0.33229-0.56864-0.25834-0.52522-1.3125zm41.464-0.34757c-0.31644-0.512-0.11799-1.2136 0.44098-1.559 0.55897-0.34546 1.0163 0.0734 1.0163 0.9309 0 1.7565-0.60006 2.0152-1.4573 0.62812zm4.4293-1.1251c-1.3596-1.0448-3.0345-1.9096-3.722-1.9218s-1.2431-1.0347-1.2347-2.2722c0.0112-1.6514 0.24508-1.8874 0.87895-0.88685 0.475 0.74974 1.0306 0.92172 1.2347 0.38219 0.20408-0.53954 1.3807-1.2949 2.6148-1.6786 1.7774-0.55261 2.1189-0.37227 1.643 0.86782-0.33038 0.86096-1.34 1.5939-2.2437 1.6288-1.2461 0.0481-1.1514 0.26264 0.39171 0.88813 2.5567 1.0363 4.8315 3.7041 3.7359 4.3812-0.45458 0.28095-1.9389-0.34398-3.2986-1.3887zm-15.954 0.31632c-0.81518-0.31997-2.089-1.1886-2.8306-1.9302-0.74166-0.74166-1.715-1.1219-2.1631-0.84502-0.44802 0.27689-1.0922-0.22003-1.4315-1.1043-0.40303-1.0503-1.3405-1.4185-2.7037-1.062-1.687 0.44116-1.9893 0.17303-1.578-1.3996 0.3334-1.2749-0.17895-2.3134-1.4867-3.0133-1.0975-0.58736-1.771-1.2924-1.4966-1.5668 0.27439-0.27439 1.677 0.27303 3.1168 1.2165 3.097 2.0292 4.1543 1.4318 2.6014-1.4699-0.77778-1.4533-0.79168-2.0856-0.0458-2.0856 0.74836 0 0.75895-0.58189 0.0352-1.9343-1.4063-2.6277-1.3029-3.489 0.22648-1.8872 1.9033 1.9935 4.0373 7.1242 2.5914 6.2306-0.72271-0.44666-0.89231-0.2817-0.44857 0.43629 0.39244 0.63498 1.1691 1.1545 1.7259 1.1545 1.0605 0 3.8696 2.4662 3.8696 3.3972 0 0.29702-0.74882 0.25269-1.664-0.0985-1.1189-0.42936-1.4272-0.25527-0.94099 0.53138 0.39769 0.64347 1.3018 1.1699 2.0091 1.1699 1.6648 0 4.8042 3.4585 3.9315 4.3312-0.75922 0.75921-1.2286 0.7492-3.3177-0.0708zm2.7506-4.4288c0.5811-0.5811 1.6468-0.85979 2.3683-0.61931 0.74895 0.24965 0.29565 0.70294-1.0566 1.0566-1.6634 0.43497-2.0538 0.30483-1.3117-0.43724zm-36.226-3.7624c-0.31644-0.512-0.11799-1.2136 0.44098-1.559 0.55897-0.34546 1.0163 0.0734 1.0163 0.9309 0 1.7565-0.60005 2.0152-1.4573 0.62812zm16.27-0.75221c0.72188-0.28887 1.5844-0.25335 1.9167 0.0789 0.33229 0.33229-0.25834 0.56864-1.3125 0.52522-1.165-0.048-1.4019-0.28494-0.60417-0.60416zm5.8542-7.9836c-0.36667-0.36666-0.66667-1.1317-0.66667-1.7 0-0.6266 0.46577-0.56756 1.1833 0.15 0.65084 0.65084 0.95084 1.4158 0.66667 1.7-0.28417 0.28417-0.81667 0.21667-1.1833-0.15zm-24.667-4.2263c0-0.49116 0.65208-1.1432 1.4491-1.4491 0.96852-0.37166 1.2647-0.0755 0.89301 0.89301-0.60696 1.5817-2.3421 1.9937-2.3421 0.55606zm21 0.5c0-0.21616 0.69837-0.661 1.5519-0.98855 0.88992-0.34149 1.2913-0.17385 0.94098 0.39301-0.58726 0.95021-2.4929 1.4054-2.4929 0.59554zm-25 64.834c0-0.85746-0.45-1.2809-1-0.94098s-1 1.0415-1 1.559c0 0.51754 0.45 0.94098 1 0.94098s1-0.70156 1-1.559zm46 0.11804c0-0.24254-0.45-0.7191-1-1.059-0.55-0.33992-1-0.14148-1 0.44098s0.45 1.059 1 1.059 1-0.19844 1-0.44098zm33-6c0-0.79254-0.52647-1.7664-1.1699-2.164-0.77747-0.4805-0.96379-0.18586-0.55542 0.87833 0.39048 1.0176-0.003 1.7642-1.0801 2.048-1.2082 0.31845-1.0488 0.47994 0.55543 0.56265 1.346 0.0694 2.25-0.46293 2.25-1.325zm-95.904-25.164c-1.1725-1.4906-2.8292-5.109-3.6815-8.0408-0.85229-2.9318-2.1621-5.6734-2.9106-6.0924-2.0441-1.1443-5.3539-9.5888-4.8387-12.346 0.51867-2.7756-1.8304-6.5504-3.4524-5.548-1.2036 0.74389 0.66552 6.9109 5.1256 16.911 2.7629 6.1949 10.775 18.94 11.47 18.246 0.23096-0.23097-0.53942-1.6396-1.712-3.1302zm20.904-10.336c0-0.51754-0.45-1.2191-1-1.559-0.55-0.33992-1 0.0835-1 0.94098 0 0.85746 0.45 1.559 1 1.559s1-0.42344 1-0.94098zm77.128-0.80902c1.2695-1.6188 1.2224-1.64-0.62756-0.28297-1.1 0.80687-2.1875 1.5944-2.4167 1.75-0.22916 0.15563 0.0532 0.28297 0.62756 0.28297 0.57432 0 1.6618-0.7875 2.4167-1.75zm0.87244-4.2148c0-0.53065-0.9-1.4465-2-2.0352-2.274-1.217-2.5892-0.58482-0.75 1.5042 1.4595 1.6577 2.75 1.9069 2.75 0.53101zm60.729-22.639c-0.3323-0.33229-1.1948-0.36781-1.9167-0.0789-0.79773 0.31922-0.56078 0.55618 0.60417 0.60416 1.0542 0.0434 1.6448-0.19293 1.3125-0.52522zm10.771-0.39583c0.78218-1.2656-0.54163-1.2656-2.5 0-1.2927 0.8354-1.2663 0.97149 0.19098 0.98469 0.93004 0.008 1.9691-0.43469 2.309-0.98469zm7.7962-1.1038c-0.76062-0.76062-1.2926-0.71107-1.8378 0.17118-0.49466 0.80038-0.35708 0.98806 0.38713 0.52811 0.63498-0.39244 1.1545-0.16197 1.1545 0.51216s0.3075 0.91818 0.68333 0.54235c0.37584-0.37583 0.20163-1.165-0.38713-1.7538zm4.3086 1.3865c-1.4893-0.38135-1.6026-0.6661-0.52896-1.3296 0.75141-0.4644 1.0717-1.1389 0.71168-1.4989-0.95517-0.95517-2.7876 0.42839-2.7876 2.1048 0 0.86205 0.90396 1.3944 2.25 1.325 1.9066-0.0983 1.9608-0.19006 0.35485-0.60128zm-81.05-4.3814-1.4762-3.4013-0.0391 3.309c-0.0232 1.9595 0.36868 3.057 0.96086 2.691 0.55-0.33992 1-0.0665 1 0.60765 0 0.67413 0.23191 0.99378 0.51535 0.71033 0.28344-0.28344-0.14894-2.0459-0.96086-3.9167zm63.772-0.18193c-0.93688-1.5159 6.1123-0.29463 7.3916 1.2806 0.84856 1.0449 1.2278 1.1207 1.25 0.25 0.0175-0.6875 0.3693-1.1967 0.7818-1.1316 2.4774 0.39117 4.2876-0.24864 3.645-1.2884-0.48945-0.79195-0.17303-0.95887 0.97937-0.51665 1.1939 0.45813 1.9474-0.009 2.5225-1.5636l0.8201-2.2169 0.75084 2.3657c0.57437 1.8097 0.9504 2.0428 1.5999 0.99194 0.67618-1.0941 1.1018-1.121 2.0907-0.13213 0.6829 0.6829 1.6766 1.2416 2.2083 1.2416 0.53166 0 0.67057-0.2961 0.30867-0.65799-0.36189-0.3619-0.15679-1.2619 0.45578-2 0.81924-0.98712 0.81694-1.342-0.009-1.342-0.61734 0-1.1224-0.675-1.1224-1.5 0-1.9536 2.9584-1.9179 5.7964 0.0699 2.0728 1.4518 2.5031 1.4081 5.7225-0.58156 2.4222-1.497 3.4812-2.8872 3.4812-4.5699 0-1.3301 0.45-2.4184 1-2.4184s1.0203-0.7875 1.0451-1.75c0.0278-1.0779 0.53094-0.61088 1.3101 1.216 2.0515 4.8102 3.1309-0.54016 1.254-6.216-0.87285-2.6396-2.6092-3.0056-2.6092-0.55 0 1.2294-0.30245 1.3976-1.0926 0.60736-1.273-1.273 0.61324-5.7217 2.0496-4.834 0.47112 0.29117 0.65185-0.25873 0.40163-1.222-0.29195-1.1239 0.34525-2.1096 1.7786-2.7514 1.2284-0.55 2.4272-1.6062 2.6639-2.3471 0.34695-1.0859 0.006-1.1197-1.761-0.1743-2.0752 1.1106-2.1267 1.0495-0.97139-1.1529 0.67101-1.2791 2.6623-3.9395 4.4251-5.9119 2.3614-2.6422 3.4129-5.0113 3.9944-9l0.78926-5.4138 0.95224 3.7145c0.72418 2.8249 0.5902 4.4402-0.55941 6.7447-1.3552 2.7165-1.3513 3.1199 0.0375 3.8971 1.0697 0.59862 1.1999 1.0828 0.42071 1.5643-0.62066 0.38357-1.1284 0.22085-1.1284-0.36161 0-1.9392-2.9323-1.092-4.4996 1.3001-1.5092 2.3034-1.1597 5.6409 0.59084 5.6409 0.48248 0 2.2393-1.2375 3.904-2.75 2.4514-2.2272 3.1184-3.7581 3.5088-8.0527 0.52944-5.8248 2.0675-9.5801 3.5488-8.6646 0.60217 0.37217 0.59802 1.2511-0.0113 2.3896-0.79808 1.4912-0.58359 1.7817 1.2473 1.6893 1.2161-0.0614 2.1661-0.6741 2.1111-1.3616-0.23249-2.9061-0.45146-3.3362-1.4-2.75-0.55 0.33992-1 0.14148-1-0.44098s0.5625-1.0946 1.25-1.138c1-0.0632 1-0.17982 0-0.58333-0.68749-0.27741-1.25-1.1419-1.25-1.921 0-0.77917-0.43588-1.4167-0.96862-1.4167-0.53273 0-0.71584 0.7875-0.40691 1.75 0.37507 1.1685-0.0974 0.94234-1.422-0.68077-1.7318-2.122-1.7998-2.6147-0.53558-3.8789 0.7965-0.79649 1.2169-2.0507 0.93433-2.7872-0.62342-1.6246 1.0054-2.8487 1.8887-1.4194 0.34546 0.55897 1.3666 1.0163 2.2691 1.0163 1.2135 0 1.3485-0.29244 0.51831-1.1227-0.81989-0.81989-0.82721-1.7711-0.0271-3.5271 0.83747-1.838 0.78458-2.6925-0.2245-3.6273-1.0624-0.98421-1.2037-0.89127-0.72381 0.4762 0.44465 1.2671 0.18366 1.5408-1.0264 1.0764-1.2287-0.4715-1.4619-0.20374-0.96052 1.1029 0.39536 1.0303 0.26237 1.4785-0.33006 1.1123-0.54572-0.33727-0.72917-1.8231-0.40767-3.3019 0.45213-2.0796 0.34315-2.3489-0.48101-1.1887-0.65658 0.92426-1.0714 1.0429-1.0809 0.30902-0.008-0.65504 0.45654-1.4826 1.0332-1.839 0.70463-0.43549 0.62263-1.1645-0.25-2.2227-1.1481-1.3922-1.0479-1.4412 0.86429-0.42243 1.1896 0.63374 2.3915 1.7199 2.671 2.4137 0.30909 0.76721 0.53914 0.57579 0.58715-0.48854 0.0434-0.9625-0.40325-1.75-0.99262-1.75-0.58936 0-0.98955-1.0125-0.8893-2.25 0.50476-6.2314-0.0645-9.9542-1.4414-9.4259-0.77123 0.29595-1.6843 0.25607-2.029-0.0886-1.2654-1.2654-4.0757-1.0867-5.6752 0.36074-1.706 1.5439-3.924 1.551-5.0378 0.0161-0.35424-0.4882-1.7042 0.1034-3 1.3147-1.44 1.3461-3.2171 2.0393-4.571 1.783-1.2183-0.23063-2.4203 0.0778-2.6711 0.68533-0.25076 0.60756-0.49146 0.31716-0.53488-0.64534-0.0889-1.9711-1.7042-2.3743-2.3039-0.57518-0.26065 0.78195-3.554 1.2-9.8482 1.25-8.2403 0.0655-9.811-0.20262-12.212-2.0847-1.5155-1.1879-2.4088-2.3517-1.9852-2.5861 0.42367-0.23442 0.1793-0.27815-0.54304-0.0972-3.9728 0.99529-13.735-8.0206-14.787-13.657-0.35932-1.925-1.2542-4.1915-1.9885-5.0366-1.825-2.1003-4.6583-9.05-3.9701-9.7382 0.30722-0.30722 0.55858-0.0336 0.55858 0.60808 0 0.64167 0.70156 1.1667 1.559 1.1667 0.85746 0 1.2809 0.45 0.94098 1s-0.19026 1 0.33257 1c0.52284 0 1.2596 1.2311 1.6373 2.7359 0.63404 2.5262 0.76802 2.5905 1.7483 0.83886 0.82935-1.482 0.683-2.1739-0.66895-3.1624-1.1232-0.82127-1.509-1.9636-1.0992-3.2547 0.35464-1.1174 0.10751-2.313-0.56381-2.728-0.75502-0.46663-0.93241-0.31348-0.48166 0.41584 0.39241 0.63502 0.23694 1.1546-0.34552 1.1546s-1.059-0.9039-1.059-2.0087c0-2.0194-4.6074-7.9913-6.1653-7.9913-0.45908 0-0.8347 0.92656-0.8347 2.059 0 1.2426 0.43609 1.7895 1.0998 1.3793 0.79958-0.49417 0.79954-0.11871-0.00014 1.3755-0.76116 1.4222-0.78944 2.8718-0.0918 4.7066 0.77142 2.029 0.71276 2.553-0.24986 2.2322-0.6919-0.23063-1.258-0.90682-1.258-1.5026 0-2.1293-1.2082-2.23-3-0.25-1.0016 1.1067-1.4994 2.334-1.1062 2.7272s1.0842 0.1174 1.5355-0.61289c0.47593-0.77006 1.07-0.92433 1.4143-0.36727 0.32651 0.52829-0.50982 1.4633-1.8585 2.0778-2.1106 0.96165-2.8026 0.76676-4.9686-1.3992-2.5143-2.5143-3.3375-4.051-1.5922-2.9724 0.50837 0.31419 1.0709-0.0974 1.25-0.91465 0.2239-1.0216 0.77435-1.2054 1.7614-0.58846 1.1899 0.74378 1.2117 1.1673 0.12755 2.4737-0.72589 0.87465-0.85617 1.5762-0.29268 1.5762 1.9602 0 2.3882-3.4108 0.59273-4.7236-0.96006-0.70201-1.3648-1.2764-0.89944-1.2764s0.0316-0.9-0.96386-2c-0.99549-1.1-2.5277-1.9645-3.405-1.921-1.0215 0.0506-1.1484 0.25935-0.353 0.58067 0.90321 0.36486 0.96181 1.0253 0.21482 2.421-0.59377 1.1095-0.63554 1.9193-0.099 1.9193 0.5105 0 1.1982-0.70352 1.5281-1.5634 0.33897-0.88334 1.1094-1.2485 1.7711-0.83955 0.79538 0.49157 0.28102 1.4895-1.603 3.11-3.1091 2.6744-5.1656 2.5421-4.8332-0.31085 0.1215-1.0429-0.0285-1.3338-0.33333-0.64626-0.85812 1.9354-1.9566 1.4912-3.2313-1.3064-0.64062-1.406-1.6141-2.2787-2.1632-1.9393-0.65883 0.40718-0.66329 1.2433-0.0131 2.4582 0.80957 1.5127 0.66527 1.7574-0.80885 1.372-1.3681-0.35776-2.0681 0.42314-2.9474 3.2882-0.78309 2.5515-0.82799 4.1492-0.1399 4.9783 0.6869 0.82767 0.67554 1.4297-0.0353 1.869-0.57667 0.35642-1.0485 2.9344-1.0485 5.7289v5.0809l3.4328-3.6399c3.4543-3.6626 7.3062-5.0081 6.2178-2.1719-0.99941 2.6044 1.129 2.6275 3.1688 0.0344 1.155-1.4683 2.5899-2.2825 3.4446-1.9545 1.9547 0.75009 4.011 5.16 4.3589 9.3479 0.1714 2.0632 1.3653 4.5264 3.0425 6.277 2.449 2.5562 2.7414 3.5667 2.592 8.9574-0.10505 3.79 0.3594 6.8839 1.2344 8.223 1.7958 2.7483 1.8035 12.319 0.0104 13.008-0.71873 0.2758-1.5758 0.23246-1.9046-0.0963-0.85133-0.85132-0.74093-2.3122 0.15223-2.0144 0.85533 0.28511 1.25-0.58316 1.25-2.75 0-0.825-0.45-1.5-1-1.5s-1 0.675-1 1.5-0.3748 1.5-0.83288 1.5c-0.45809 0-0.72059 1.0125-0.58333 2.25 0.13725 1.2375 0.29393 2.925 0.34819 3.75 0.0877 1.3333 0.21403 1.3333 1.1371 0 0.85354-1.2329 0.97378-1.1439 0.6753 0.5-0.19973 1.1-0.89892 1.8875-1.5538 1.75-1.2645-0.26552-1.3203-0.14087-1.6789 3.75-0.1267 1.375-0.5968 3.3656-1.0447 4.4236-0.65473 1.5467-0.48635 1.7978 0.85933 1.2814 2.1422-0.82203 2.1049-0.50833-0.26393 2.223-1.0656 1.2287-1.6925 2.8726-1.393 3.653 0.29949 0.78046 0.0464 1.419-0.56246 1.419-0.60885 0-1.107 0.47656-1.107 1.059 0 0.58246 0.49821 0.7511 1.1071 0.37477 1.3511-0.83503 0.22104 3.349-1.4795 5.4778-0.62018 0.77638-1.1276 3.4737-1.1276 5.9941 0 4.0317-0.26681 4.5967-2.2198 4.7004l-2.2198 0.1179 2.1369-3.001c1.4239-1.9997 1.6641-2.8445 0.71984-2.5318-0.7794 0.25806-2.0526 1.7831-2.8293 3.389-0.77671 1.6059-1.8224 3.7544-2.3238 4.7745-0.62238 1.2662-0.57092 1.6441 0.1622 1.191 0.5906-0.36502 1.0738-0.18711 1.0738 0.39535s-0.675 1.059-1.5 1.059c-0.83333 0-1.5 0.88889-1.5 2 0 1.1 0.45 2 1 2s1-0.675 1-1.5c0-3.446 3.9454 0.2462 4.6249 4.3281 0.63128 3.7924 1.3036 4.3863 3.0213 2.6686 0.90857-0.90857 2.4849-1.4341 3.5029-1.1679 1.2479 0.32633 1.8559-0.0556 1.8662-1.1724 0.0133-1.4365 0.14605-1.4572 1-0.15638 0.81751 1.2453 1.1335 1.2692 1.8611 0.14095 0.68374-1.0603 1.77-0.55171 4.9412 2.3132 3.7791 3.4142 4.3144 3.6034 7.6157 2.6918 1.953-0.53926 3.788-0.59686 4.0778-0.12802 0.28976 0.46885-0.9442 1.0384-2.7422 1.2656-2.8954 0.36591-3.0198 0.49886-1.0882 1.1633 1.4314 0.49238 2.0003 1.3177 1.6557 2.4016-0.43736 1.3754-0.35324 1.4087 0.50321 0.19921 0.5656-0.79874 0.7847-1.8465 0.48689-2.3284zm7.6734-0.88606c0-0.45833 0.42344-0.83333 0.94098-0.83333s1.1728 0.375 1.456 0.83333c0.28327 0.45834-0.14017 0.83334-0.94098 0.83334-0.8008 0-1.456-0.375-1.456-0.83334zm9-6.8333c0-0.55 0.43588-1 0.96862-1 0.53273 0 0.70959-0.675 0.39301-1.5-0.36449-0.94984 0.0138-1.5 1.0314-1.5 1.9327 0 1.9928 0.90799 0.21494 3.25-1.4784 1.9476-2.608 2.2724-2.608 0.75zm-12.5-1c0.33992-0.55 0.81648-1 1.059-1 0.24254 0 0.44098 0.45 0.44098 1s-0.47656 1-1.059 1c-0.58246 0-0.7809-0.45-0.44098-1zm56.5-39.059c0-0.58246 0.45-0.7809 1-0.44098s1 0.81648 1 1.059c0 0.24254-0.45 0.44098-1 0.44098s-1-0.47656-1-1.059zm-5.9847-1.691c0.0279-1.3687 1.8663-3.7017 2.4539-3.1142 0.78775 0.78775-0.46709 3.8642-1.5762 3.8642-0.49115 0-0.88612-0.3375-0.8777-0.75zm-2.0153-14.693c0-1.4396 4.0126-4.8774 4.7879-4.1021 0.53992 0.53991-3.073 5.4735-4.0379 5.514-0.4125 0.0173-0.75-0.61806-0.75-1.4119zm3-8.5567c0-0.55 0.47656-1 1.059-1 0.58246 0 0.7809 0.45 0.44098 1s-0.81648 1-1.059 1c-0.24254 0-0.44098-0.45-0.44098-1zm-0.98469-4.191c-0.008-0.93004 0.43469-1.9691 0.98469-2.309 1.2656-0.78218 1.2656 0.54163 0 2.5-0.8354 1.2927-0.97149 1.2663-0.98469-0.19098zm-3.0153-6.5585c0-1.011 0.46919-1.0698 2-0.25053 1.1 0.5887 2 1.1831 2 1.3209 0 0.13779-0.9 0.25053-2 0.25053s-2-0.59441-2-1.3209zm-84.5-24.251c-0.33992-0.55-0.14148-1 0.44098-1s1.059 0.45 1.059 1-0.19844 1-0.44098 1-0.7191-0.45-1.059-1zm-37.065 109.02c1.9576-0.74429 2.5651-1.6776 2.5651-3.941 0-3.912-1.3762-4.6178-3.019-1.5482-1.2352 2.3079-1.4374 2.3614-3.132 0.82786-1.4769-1.3366-2.0921-1.4066-3.3303-0.37895-0.83532 0.69325-1.5256 0.86786-1.5341 0.38801-0.008-0.47984-0.45153-0.19744-0.98469 0.62756-0.58246 0.90129-0.97549 1.0246-0.98469 0.30902-0.008-0.65504 0.45701-1.4829 1.0343-1.8397 0.64996-0.4017 0.27611-1.3195-0.98181-2.4105-1.1173-0.96901-1.7396-2.0537-1.383-2.4103 0.35667-0.35666 0.22282-0.64848-0.29742-0.64848-0.52025 0-1.5946 0.9-2.3874 2-0.86857 1.2051-2.5887 2-4.3278 2-2.1742 0-2.742 0.37577-2.3017 1.5231 0.46268 1.2057 0.20736 1.3213-1.2253 0.5546-0.99536-0.5327-2.3989-1.6784-3.1189-2.546-1.1296-1.3611-1.0498-1.4801 0.58225-0.86736 1.6709 0.62731 1.7314 0.51336 0.519-0.97711-0.75485-0.92798-0.97985-1.7009-0.5-1.7176 0.47984-0.0167 0.0512-0.50797-0.95256-1.0917-2.1903-1.2737-3.753-0.17135-1.646 1.1611 0.80907 0.51167 0.96029 0.93721 0.33605 0.94563-0.62424 0.008-1.8112-1.0167-2.6377-2.2781-1.2558-1.9167-1.286-2.5897-0.18369-4.0972 0.72544-0.9921 1.0824-2.5476 0.79333-3.4566-0.38864-1.222-0.28322-1.3157 0.40445-0.35952 0.73836 1.0267 1.4171 0.89892 3.2925-0.6197l2.3624-1.913-2.1604-0.68569c-2.909-0.92327-6.0721 0.92414-6.8433 3.9967-0.54943 2.1891-1.0487 2.4475-3.8644 2-2.7212-0.43247-3.4116-0.12299-4.3577 1.9535-1.0419 2.2868-0.86079 2.5775 2.4748 3.9711 1.9794 0.82706 3.9293 1.5038 4.333 1.5038 0.40374 0 2.7113 1.5079 5.1279 3.351 7.8481 5.9855 11.79 7.5566 19.079 7.6048 3.6767 0.0243 7.8392-0.39466 9.25-0.93105zm-35.435-14.466c0-0.85746 0.45-1.559 1-1.559s1 0.42344 1 0.94098-0.45 1.2191-1 1.559c-0.55 0.33992-1-0.0835-1-0.94098zm93 13.441c0-0.55-0.45-1-1-1s-1 0.45-1 1 0.45 1 1 1 1-0.45 1-1zm34 0c0-0.55-0.19844-1-0.44098-1s-0.7191 0.45-1.059 1c-0.33992 0.55-0.14148 1 0.44098 1s1.059-0.45 1.059-1zm5 0c0-0.55-0.19844-1-0.44098-1s-0.7191 0.45-1.059 1c-0.33992 0.55-0.14148 1 0.44098 1s1.059-0.45 1.059-1zm-40.5-1.6352c1.9682-1.5466 1.9643-1.561-0.24371-0.90281-1.7704 0.52772-2.117 0.33858-1.643-0.89657 0.33345-0.86895 0.082-1.5654-0.56531-1.5654-0.6413 0-0.88789 0.45-0.54797 1 0.89915 1.4549-0.22326 1.2274-3.0352-0.61501-1.5138-0.99185-2.4648-1.1848-2.4648-0.5 0 0.61326 0.62252 1.115 1.3834 1.115 0.76085 0 1.6187 0.9 1.9064 2 0.62368 2.385 2.4745 2.5146 5.2102 0.36477zm44.993 0.64668c0.35034-0.56686-0.0511-0.7345-0.94098-0.39301-1.7324 0.66479-2.0494 1.3816-0.61096 1.3816 0.51754 0 1.2159-0.44485 1.5519-0.98855zm-194.89-3.1688c-0.78049-1.1143-2.3544-2.6811-3.4976-3.4818-1.8896-1.3235-2.0257-1.2925-1.4973 0.34166 0.4863 1.5041 0.40503 1.5526-0.49785 0.29748-1.7927-2.4921-1.261-3.2803 1.7999-2.6681 2.1037 0.42074 3.0762 0.14756 3.5113-0.98634 0.42567-1.1093 0.15948-1.3985-0.90955-0.9883-0.83124 0.31898-1.5113 0.14408-1.5113-0.38865 0-0.53274-0.9-0.96862-2-0.96862-2.4669 0-2.5897-2.266-0.25-4.6112 0.9625-0.96474 1.771-2.4594 1.7967-3.3214 0.0257-0.86204 0.54317-1.4699 1.15-1.3507 0.60679 0.11916 1.3818-0.89334 1.7223-2.25s1.0605-2.4666 1.6-2.4666c1.3332 0 1.2354 1.3456-0.20238 2.7833-0.65084 0.65084-0.95084 1.4158-0.66667 1.7 0.28417 0.28417 2.1558-1.1225 4.1592-3.1258 3.1363-3.1363 3.8649-3.4579 5.2429-2.3143 1.3353 1.1082 1.7439 1.096 2.467-0.074 0.50715-0.82058 0.4554-1.8976-0.12477-2.5967-1.393-1.6784 0.41372-2.5844 3.5728-1.7915 1.4824 0.37207 3.1799 0.12691 4.035-0.58275 1.9968-1.6572 8.3815-0.40974 11.168 2.182l2.1702 2.0184 2.2601-2.5994c1.2431-1.4296 2.854-2.5993 3.5798-2.5993 1.6756 0 1.728 1.6959 0.0697 2.254-0.97451 0.32799-0.94753 0.78714 0.12244 2.0833 1.5257 1.8483 6.6826 2.3698 5.5659 0.56285-0.43806-0.70878 0.16312-0.66062 1.691 0.13546 3.2575 1.6973 3.3665 1.8597 1.2337 1.8386-1.0247-0.0101-2.763 0.20458-3.863 0.47713-1.1 0.27254-2.3375 0.52997-2.75 0.57205-0.4125 0.0421-0.75 0.99404-0.75 2.1155v2.039l2.1886-2.039c1.2037-1.1214 2.5695-2.039 3.0352-2.039 1.5887 0-1.2153 3.8625-3.2796 4.5177-2.5011 0.79381-2.1966 3.81 0.43572 4.3169 1.0755 0.20712 1.5914-0.072 1.226-0.66325-0.78162-1.2647 6.4132-9.7176 11.41-13.405 3.6795-2.7153 3.716-2.7203 5.4992-0.75 0.98727 1.0909 2.4226 1.9835 3.1897 1.9835 0.76707 0 2.7878 0.72044 4.4906 1.601 2.3901 1.236 2.7778 1.8025 1.7003 2.4847-1.0825 0.68541-1.1019 0.88714-0.0866 0.89902 0.71996 0.008 1.0241 0.57781 0.67584 1.2653-0.34825 0.6875 0.0769 0.37419 0.94473-0.69625 0.96296-1.1878 1.2186-2.3056 0.65589-2.8683-0.56269-0.56269 0.0729-1.7778 1.6309-3.1179 2.954-2.5409 2.4859-4.1353-2.6484-9.022-2.2955-2.1848-4.1309-2.9802-7.0453-3.0533-3.4223-0.0859-3.7819 0.10559-2.7319 1.4544 1.036 1.3308 0.98115 1.3755-0.38278 0.31202-0.8756-0.68273-1.8667-0.96666-2.2024-0.63096-0.3357 0.33571-1.3068-0.0861-2.158-0.93724-2.2775-2.2775-1.8863-3.307 0.45238-1.1905 3.5285 3.1932 2.1324 0.065-1.5-3.3612-1.925-1.8157-3.5-3.733-3.5-4.2605 0-0.52758-0.87878-2.1785-1.9528-3.6688-1.074-1.4902-2.2354-4.0595-2.5809-5.7095-0.48199-2.3023-0.37667-2.6512 0.45284-1.5 0.96078 1.3333 1.192 1.3333 2.0809 0 0.88889-1.3333 1.1094-1.3333 1.9847 0 0.65846 1.003 0.98976 1.0859 1 0.25 0.009-0.72009 1.2929-1.25 3.0289-1.25 2.732 0 4.4844 0.61581 8.9864 3.1578 0.825 0.46583 2.4339 1.2548 3.5752 1.7534 2.2092 0.96493 5.927 5.92 5.0784 6.7685-0.27839 0.2784-1.2259-0.88565-2.1056-2.5868-2.2003-4.2549-2.9076-3.9148-0.84667 0.40707 0.91797 1.925 2.2607 3.5 2.9838 3.5 0.72314 0 1.3148 0.68912 1.3148 1.5314 0 0.84227 0.675 1.7904 1.5 2.107 0.825 0.31659 1.5069 1.54 1.5153 2.7186 0.0126 1.757 0.19271 1.8728 1 0.64301 0.826-1.2583 1.1278-1.2779 1.8729-0.12188 0.51697 0.80212 1.4175 1.051 2.1545 0.59549 0.82447-0.50955 1.0173-0.3798 0.55278 0.37188-0.41821 0.67669-0.0927 1.1545 0.78648 1.1545 0.825 0 1.7826-0.45734 2.1281-1.0163 0.34546-0.55897 1.047-0.75742 1.559-0.44098 0.51199 0.31643 0.9309-0.12623 0.9309-0.98369s0.59873-1.559 1.3305-1.559c0.73179 0 3.5443-1.1231 6.25-2.4958 6.4488-3.2717 6.6558-3.1658 1.9086 0.97663-2.6118 2.279-3.4258 3.4874-2.3578 3.5 1.6006 0.0188 6.8687-5.9476 6.8687-7.7792 0-0.51252 0.93266-2.1176 2.0726-3.5667 1.1399-1.4492 1.5861-2.6349 0.99153-2.6349-1.4934 0 0.81119-3.9099 3.7214-6.3134 1.4978-1.237 2.0827-2.5266 1.6971-3.7415-0.32363-1.0197 0.12598-2.9442 0.99913-4.2768 2.1203-3.236 3.6494-8.6683 2.44-8.6683-0.57675 0-0.56852-0.67473 0.0214-1.75 2.7162-4.9512 4.1274-9.2908 4.0155-12.348-0.0685-1.8714 0.2158-4.5275 0.63182-5.9025 0.68074-2.25 0.58903-2.3627-0.91703-1.1276-1.448 1.1876-1.6734 1.1406-1.6734-0.34887 0-0.94672 0.72712-3.2536 1.6158-5.1264 0.8887-1.8728 1.3887-4.5931 1.1112-6.045-0.27756-1.452 0.17997-4.2627 1.0167-6.246 0.83677-1.9833 1.4908-4.8789 1.4535-6.4346l-0.0679-2.8285 1.9354 2.2315c2.3209 2.676 2.7175 0.48714 0.48835-2.6954-0.82582-1.179-1.2704-3.461-1.0357-5.3158 0.318-2.5127 0.0864-3.1252-1.021-2.7003-0.78775 0.30229-1.6982 0.11927-2.0233-0.40671-0.32513-0.52598-0.16696-0.95633 0.35143-0.95633 1.4045 0 2.0932-13.224 0.77672-14.914-0.93685-1.2027-0.72807-1.2268 1.3988-0.16117 2.1622 1.0833 2.0947 0.9156-0.49951-1.2411-1.6497-1.3715-3.3372-2.2849-3.75-2.0298-0.41277 0.25511-0.75049 0.0245-0.75049-0.51248 0-0.53697-2.0606-1.7632-4.579-2.725-3.5938-1.3725-4.2376-1.9398-2.9921-2.6368 0.87281-0.48845 2.0334-0.61218 2.579-0.27496 0.54564 0.33723 0.99208 0.24909 0.99208-0.19587s1.125-0.80902 2.5-0.80902c2.4684 0 3.6703 1.4715 1.25 1.5304-0.6875 0.0167-0.42875 0.50797 0.575 1.0917 1.0038 0.58369 2.0912 0.79501 2.4167 0.46959 0.32541-0.32541 0.0606-0.59166-0.58842-0.59166-0.85442 0-0.77904-0.95986 0.27318-3.4782 0.93743-2.2436 1.0961-3.6989 0.44689-4.1001-0.55351-0.34209-1.2764-0.35192-1.6065-0.0219-0.33007 0.33008-0.0486 0.60014 0.62555 0.60014 0.67413 0 0.95972 0.43035 0.63464 0.95633-0.32507 0.52598-1.2516 0.70283-2.059 0.39301-0.84348-0.32368-1.4745 0.014-1.4833 0.79367-0.0118 1.0471-0.2367 1.0144-0.98469-0.14301-0.53316-0.825-0.94074-2.175-0.90574-3 0.0437-1.0307 0.22209-1.107 0.5701-0.24377 0.27855 0.69093 0.89837 1.014 1.3774 0.71798 0.479-0.29605 0.61742-1.1988 0.3076-2.0062-0.39146-1.0201 0.11686-1.4679 1.6661-1.4679 1.884 0 2.0335-0.23613 0.96448-1.5242-1.4734-1.7753-1.321-1.9953 2.0201-2.9171 1.7056-0.47058 2.0659-0.38901 1.1337 0.25669-1.0183 0.70534-1.0985 1.4225-0.31494 2.8155 0.98288 1.7473 1.1132 1.7062 1.9989-0.63092 0.52114-1.375 0.70848-2.9027 0.41631-3.395-0.29216-0.49224 0.76838-0.64655 2.3568-0.34291s3.6803 0.12805 4.6486-0.3902c1.1538-0.6175 1.7606-0.58548 1.7606 0.0929 0 0.56935-0.675 1.0352-1.5 1.0352-2.5717 0-1.6408 1.7378 1.25 2.3336 2.0018 0.41259 3.2154 0.0192 4.4607-1.4457 1.9786-2.3277 11.403-3.6062 18.789-2.5489 1.375 0.19682 2.8213-0.13644 3.2139-0.74059 0.45383-0.6983 5.1897-1.1035 13-1.1123 6.7574-0.008 12.899-0.40274 13.648-0.87812 0.85133-0.54032 1.6528-0.39341 2.1382 0.39192 0.42702 0.69093 1.284 0.94248 1.9045 0.55902 0.62046-0.38347 0.89888-1.0681 0.61871-1.5214-0.28017-0.45333 0.71367-1.1312 2.2085-1.5064 1.75-0.43922 2.859-0.25885 3.1141 0.50648 0.28667 0.86001 0.63922 0.81176 1.2752-0.17452 0.73137-1.1343 1.0443-1.1113 1.8636 0.13685 0.77897 1.1866 0.98788 1.2122 1 0.12219 0.0116-1.04 0.97031-1.2251 3.9102-0.75498 3.145 0.5029 4.0252 0.28684 4.5714-1.1222 0.62586-1.6144 0.78924-1.5953 2.1826 0.25498 0.98394 1.3066 1.4067 1.4799 1.2192 0.5-0.37182-1.944 2.2459-6 3.8723-6 0.6927 0 1.2572-0.5625 1.2545-1.25-0.006-1.6057-4.9112-7.6326-4.9591-6.0936-0.0573 1.8436-3.9764 0.32334-5.2366-2.0313-1.3553-2.5323-1.3426-2.6713 0.33721-3.7095 1.0444-0.64548 1.0064-0.92352-0.18906-1.3822-1.7674-0.67822-1.425-8.5641 0.4241-9.768 0.7262-0.47282 0.53951-0.74014-0.52377-0.75-0.93912-0.009-2.1796-1.418-2.8742-3.2653-1.7902-4.7613-1.8349-6.75-0.15156-6.75 1.2562 0 1.2302-0.2847-0.16712-1.8287-0.91025-1.0058-1.655-2.2079-1.655-2.6712 0-0.46339-0.76961-1.6929-1.7102-2.7323-1.1234-1.2414-1.3464-2.1262-0.64994-2.5787 0.58316-0.37893 1.3172-1.364 1.6313-2.189 0.45482-1.1948 0.58706-1.1439 0.64994 0.25 0.15699 3.4799 3.335 1.3117 3.6132-2.4651 0.0993-1.3484-0.17684-1.4965-1.2027-0.64514-0.97272 0.80729-1.6933 0.80496-2.6736-0.009-0.7381-0.61257-1.6418-0.89642-2.0083-0.63078-0.36648 0.26565-0.19384-0.072 0.38365-0.75031 0.76806-0.90217 1.2402-0.92965 1.7583-0.10233 0.51803 0.82709 1.0176 0.79756 1.8591-0.10992 0.71147-0.76719 0.81275-1.7747 0.26531-2.6393-0.64431-1.0176-0.88961-1.0544-0.90076-0.13502-0.0203 1.677-6.7462-1.0591-8.6628-3.524-1.2772-1.6426-1.436-1.6314-2.8525 0.20174-0.825 1.0676-1.5 1.4317-1.5 0.80902 0-0.62266 0.48921-1.4345 1.0871-1.804 0.78285-0.48382 0.78285-0.97617 0-1.759-0.59792-0.59795-1.0871-1.6825-1.0871-2.4102 0-1.0598 0.44764-1.0346 2.25 0.12681 2.6223 1.6898 7.645 1.0334 8.4661-1.1063 0.40582-1.0576 1.0437-0.69187 2.4113 1.3823 1.3671 2.0734 1.8612 2.3568 1.8661 1.0702 0.004-0.9625-0.44341-1.75-0.99341-1.75s-1-0.86968-1-1.9326-0.89895-2.2179-1.9977-2.5666c-2.5171-0.7989-3.8248-5.366-1.8877-6.5928 1.13-0.71566 1.091-0.88018-0.21184-0.89267-0.87845-0.008-2.0855 0.99719-2.6823 2.2347-0.90177 1.8698-1.0966 1.9443-1.1528 0.44098-0.0429-1.1478-0.52461-1.5509-1.3177-1.1029-0.6875 0.38834-0.22752-0.28692 1.0222-1.5006s1.981-2.6779 1.625-3.2538c-0.42392-0.68592-0.98155-0.57912-1.6165 0.30961-0.72571 1.0158-0.81996 0.89638-0.375-0.47502 0.32688-1.0075 0.59433-2.7647 0.59433-3.905 0-2.0478 0.0276-2.0498 2.25-0.16821 2.2486 1.9038 2.2489 1.9037 0.49584-0.17835-1.7421-2.069-5.2248-3.0006-4.0378-1.0801 0.36951 0.59787-0.0524 0.74524-1.044 0.36472-1.7859-0.68533-2.3242 0.77264-0.66404 1.7987 1.303 0.80528 1.303 6.5 0 6.5-0.55 0-1-0.8158-1-1.8129s-1.35-3.1063-3-4.6871-3-2.34-3-1.6871-0.675 1.1871-1.5 1.1871c-0.83333 0-1.5-0.88888-1.5-2 0-1.1-0.45-2-1-2s-1.0305-1.0125-1.0677-2.25l-0.0677-2.25-1.0725 2.2218c-0.89194 1.8477-0.61096 2.8269 1.6687 5.8157 2.9699 3.8937 2.8613 5.0169-0.38541 3.9865-1.4554-0.46193-2.0753-1.5028-2.0753-3.4843 0-1.5892-0.65638-3.0775-1.5-3.4012-1.7945-0.6886-2.0197-3.6384-0.27778-3.6384 0.67222 0 0.19627-1.0125-1.0577-2.25-2.1761-2.1476-2.3412-2.1676-3.6262-0.44016-0.81115 1.0904-1.5977 1.403-1.9788 0.78648-0.38471-0.62247-1.4017-0.25416-2.596 0.94016-1.0799 1.0799-2.7245 1.9635-3.6547 1.9635-1.4756 0-1.4438-0.18871 0.25-1.481 1.6802-1.2819 1.7395-1.6159 0.44113-2.4847-1.2966-0.86759-1.2707-1.0058 0.19098-1.019 0.93004-0.008 1.9432-0.42335 2.2514-0.92206 1.2129-1.9625-3.6033 0.29588-5.3404 2.5042-1.0725 1.3634-3.0908 2.4461-4.8032 2.5766-2.5216 0.19214-2.9303 0.61444-2.7951 2.8877 0.1188 1.9968-0.24422 2.5574-1.4518 2.2416-0.88558-0.23158-2.6676 0.49609-3.9601 1.617-1.2925 1.121-2.8544 1.7206-3.4709 1.3324-1.9329-1.2169-7.6205-0.84581-7.6207 0.49717-0.00021 1.2549-1.3096 1.4087-12 1.4098-4.6522 0.0005-5.2359 0.19376-3.7868 1.2537 1.5125 1.1063 1.3614 1.2531-1.2894 1.2531-1.8457 0-2.5169-0.30012-1.7422-0.77896 0.69322-0.42843 0.97188-1.0675 0.61925-1.4201-0.35262-0.35262-1.4013 0.51905-2.3304 1.937-0.92911 1.418-2.0901 2.3305-2.5799 2.0278-0.48984-0.30274-0.89062-0.0866-0.89062 0.48042 0 0.63274-1.6413 0.81751-4.25 0.47843-8.1351-1.0574-11.75-1.1822-11.75-0.40583 0 1.2482-3.568 1.8359-5.2913 0.87144-0.95956-0.537-1.8199-0.48588-2.201 0.13077-0.84279 1.3637-3.5076 1.2918-3.5076-0.0946 0-0.60885 0.675-0.84797 1.5-0.53139 0.825 0.31659 1.5 0.0872 1.5-0.50964 0-0.59689-0.89955-0.85001-1.999-0.5625-1.0995 0.28752-2.2218 0.16224-2.4941-0.27839-0.27232-0.44062-2.3266-0.38963-4.565 0.11331-4.5251 1.0167-8.0466-0.0867-3.9317-1.232 2.2975-0.63946 2.3204-0.70073 0.29646-0.79271-1.4388-0.0654-2.8032 0.93255-3.9656 2.9003-0.97468 1.65-2.0126 3.0574-2.3065 3.1276-0.29391 0.0702-1.5804 0.23536-2.8589 0.36704s-3.6719 1.2356-5.3186 2.453c-1.6468 1.2175-3.5933 1.9837-4.3257 1.7026-1.5946-0.61193-6.8946 3.2328-7.3614 5.3402-0.1816 0.8198-0.79391 1.7771-1.3607 2.1274-1.3426 0.82975-4.8091-0.0855-4.8091-1.2698 0-0.5052-0.7875-0.43944-1.75 0.14615-9.7981 5.9611-9.66 5.91-11.5 4.2625-1.5938-1.427-1.75-1.4172-1.75 0.10959 0 0.92203-1.1398 2.1958-2.5329 2.8305-2.2097 1.0068-2.735 0.86551-4.117-1.1075-1.04-1.4848-2.2518-2.0869-3.5282-1.7531-2.3255 0.60814-3.5447-1.7604-1.9162-3.7226 0.87918-1.0594 0.57947-1.7211-1.3529-2.9873-4.3124-2.8256-8.2422-1.9938-7.6711 1.6235 0.0651 0.4125-0.33158 0.75-0.88158 0.75s-1 0.48032-1 1.0674c0 0.59669 0.84486 0.79924 1.9158 0.45933 2.0418-0.64805 3.6023 0.82589 2.5968 2.4528-0.38253 0.61893-1.3078 0.54084-2.5135-0.21215-2.5066-1.5654-3.1485-0.76428-2.3973 2.9918 0.44556 2.2278 1.3457 3.2733 3.257 3.783l2.6412 0.7044-2.75 0.96004c-1.5125 0.52803-2.75 1.5494-2.75 2.2697 0 0.72032-0.675 1.5687-1.5 1.8853-2.0199 0.77511-1.9104 2.6384 0.15499 2.6384 1.54 0 1.54 0.12707 0 1.8287-1.9518 2.1568-2.1832 3.6066-0.40499 2.5383 0.84936-0.51028 0.81011-0.20868-0.12244 0.94098-1.743 2.1487-0.27341 2.1828 2.7518 0.0639 1.8212-1.2756 2.0317-1.8135 0.97251-2.4847-0.9346-0.59224-0.47066-0.86137 1.5031-0.87196 1.5702-0.008 4.8883-1.3876 7.3735-3.0648 5.8026-3.9161 7.5244-3.5601 8.7136 1.8017 0.51814 2.3363 1.3322 4.2478 1.809 4.2478 0.47682 0 0.58884 0.45 0.24892 1s-0.19396 1 0.32435 1 1.1742 0.88661 1.4576 1.9702c0.39889 1.5254 0.055 1.9205-1.5231 1.75-2.8296-0.30574-3.3004 1.8356-0.86244 3.9231 1.5192 1.3008 1.7574 2.069 0.94492 3.0479-0.59741 0.71984-1.637 1.3088-2.3101 1.3088-2.0222 0-7.5312-3.0691-7.5312-4.1957 0-0.6453-0.57744-0.56997-1.5 0.19569-2.1709 1.8017-1.8434 3 0.81989 3 1.2759 0 3.832 1.35 5.6801 3 4.3819 3.9121 2.3776 3.8292-4.1229-0.17067l-5.153-3.1707-1.9454 2.6707c-1.07 1.4689-2.5564 2.6707-3.303 2.6707-0.74667 0-1.683 0.52647-2.0806 1.1699-0.48333 0.78204-0.18197 0.9623 0.90896 0.54367 0.89761-0.34445 1.898-0.19592 2.2231 0.33006 0.32507 0.52598-0.0554 0.95633-0.84553 0.95633-0.79011 0-1.9968 0.675-2.6815 1.5-1.0226 1.2322-0.94468 1.5 0.43657 1.5 0.92481 0 1.3988 0.45734 1.0534 1.0163-0.34546 0.55897-0.99586 0.78903-1.4453 0.51125-0.95175-0.58822-2.1929 3.4235-1.4373 4.646 0.28092 0.45455 1.3421 0.82646 2.3581 0.82646 1.3915 0 1.7288-0.5552 1.3668-2.25-0.44561-2.0862-0.37617-2.1226 0.95386-0.5 1.6109 1.9652 6.2936 2.4969 5.109 0.58006-0.50646-0.81947-0.14968-0.9454 1.191-0.42038 1.0527 0.41226 4.3097 1.1456 7.2378 1.6295 2.9281 0.48397 8.6969 1.8054 12.82 2.9364 4.1227 1.131 7.9145 1.7977 8.4262 1.4814 2.015-1.2453 0.72687-3.3862-3.543-5.8886-5.9226-3.4709-9.8989-10.067-8.9898-14.913 0.46474-2.4773 0.2662-3.6006-0.69264-3.9184-0.73927-0.24511-0.29392-0.26823 0.98966-0.0514 1.4393 0.24316 2.0874-0.004 1.691-0.6458-0.35354-0.57205 0.0213-1.0401 0.83288-1.0401 0.81163 0 1.6794-0.5625 1.9284-1.25 0.36215-1 0.8761-1 2.5698 0 1.1644 0.6875 2.5732 1.25 3.1306 1.25 1.4525 0 1.2545-2.7473-0.23643-3.2798-0.6875-0.24553-0.94472-0.77581-0.57161-1.1784 0.37312-0.40258 1.4856 0.21081 2.4722 1.3631 0.98661 1.1523 2.608 2.0951 3.603 2.0951 0.99502 0 2.0616 0.65787 2.3701 1.4619 0.30854 0.80406 1.4533 1.7452 2.544 2.0913 1.0906 0.34615 1.7381 0.87424 1.4388 1.1735-0.29928 0.29928-1.6832-0.20218-3.0754-1.1144-1.3922-0.91218-2.5312-1.2532-2.5312-0.7579 0 1.7626 3.0272 3.3735 5.464 2.9076 1.3615-0.26027 2.268-0.13745 2.0143 0.27294-0.77685 1.257 3.8702 3.7095 11.312 5.9697 6.73 2.0442 11.825 5.0465 10.617 6.2554-0.30644 0.30645 0.48924 0.87834 1.7682 1.2709 1.279 0.39253 2.9133 1.1848 3.6319 1.7606 0.71858 0.57582 2.6629 1.1954 4.3208 1.3769 2.5953 0.28412 6.8167 2.9764 5.7418 3.6619-0.20298 0.12944-1.269 0.89552-2.369 1.7024-1.8104 1.328-1.8804 1.3138-0.73767-0.15028 1.0323-1.3226 0.98233-1.8497-0.27416-2.8925-0.84508-0.70134-1.8313-0.9804-2.1916-0.62012-0.98736 0.98737 2.4823 7.6417 3.9372 7.551 1.0019-0.0625 1.0053-0.18422 0.0162-0.58333-2.2356-0.90207-1.3385-2.4997 1-1.7809 3.1108 0.95621 3.4227 1.406 1.721 2.4822-1.2338 0.78028-1.1888 0.93278 0.27896 0.94563 0.9625 0.008 1.75 0.43317 1.75 0.94388 0 0.51072 0.70714 1.6357 1.5714 2.5 0.86428 0.86429 1.1116 1.5714 0.54969 1.5714-0.56196 0-1.4804-0.7875-2.041-1.75-0.95947-1.6473-1.0211-1.6484-1.0497-0.019-0.018 1.0249 0.98656 1.9862 2.4627 2.3567 1.3712 0.34415 2.2427 1.0309 1.9366 1.5261-0.30606 0.49521 0.25955 1.2019 1.2569 1.5704 3.9145 1.4463 4.5066 5.3159 0.81338 5.3159-2.0643 0-2.4973 0.47925-2.4847 2.75 0.0101 1.804 0.29555 2.3083 0.82995 1.4661 0.44909-0.70776 1.564-0.9963 2.4847-0.64301 1.9755 0.75806 2.1725 2.0563 0.42005 2.7674-0.94433 0.38317-0.8832 0.79342 0.25 1.6777 1.2877 1.0048 1.2523 1.0908-0.25 0.60752-0.9625-0.30962-1.75-0.12707-1.75 0.40566 0 0.53274-0.49814 0.96862-1.107 0.96862-0.60884 0-0.84797-0.675-0.53138-1.5 0.31658-0.825 0.18787-1.5-0.28603-1.5-0.47389 0-1.1206 0.675-1.4372 1.5-0.31658 0.825-0.18996 1.5 0.28138 1.5 0.98255 0-2.9357 10.109-4.7792 12.331-0.76391 0.92046-0.8445 1.6054-0.21436 1.8221 0.65162 0.22411 0.67185 0.8792 0.0571 1.8472-0.81251 1.2794-0.9549 1.2426-0.96796-0.25-0.0213-2.4344-0.90151-2.1931-3.6477 1-2.5269 2.9381-3.267 2.0083-1.0168-1.2775 0.74295-1.0849 1.6485-3.198 2.0124-4.6959 0.53325-2.1951 0.36245-2.6086-0.88061-2.1316-0.97765 0.37517-1.3232 1.2817-0.944 2.4764 0.35408 1.1156-0.0916 2.5744-1.0921 3.5749-1.587 1.587-1.6524 1.5105-1.0701-1.2531 0.34108-1.6188 0.21639-3.5714-0.27709-4.339-0.69526-1.0814-1.2576-0.69868-2.4982 1.7003-2.0207 3.9076-2.0045 4.2853 0.14902 3.4698 1.6456-0.62311 1.644-0.55576-0.0257 1.1285-0.97993 0.98847-2.4761 1.5224-3.3387 1.1914-1.8396-0.70592-5.875 2.1053-12.274 8.5505-4.6294 4.6629-11.137 9.2414-16.476 11.593-3.3872 1.4918-3.6352 1.5206-3.6352 0.42178 0-0.46197 1.8-1.434 4-2.1601 2.2-0.72607 4-1.7096 4-2.1857 0-0.47609-1.2375-0.22872-2.75 0.54971s-5.9841 1.9146-9.9368 2.525c-7.7438 1.1956-12.313 0.32708-12.313-2.3403 0-0.82547-1.6875-2.3917-3.75-3.4806l-3.75-1.9797 4.75-0.0442c3.902-0.0363 4.75 0.27319 4.75 1.7336 0 2.7688 3.6892 5.4589 5.8791 4.2869 1.1552-0.61826 2.1622-0.6234 2.7714-0.0141 0.60926 0.60926 1.6641 0.39177 2.9032-0.59858 1.8747-1.4983 1.8543-1.5328-0.55375-0.93824-1.9444 0.4801-2.1666 0.38049-1-0.44822 1.2061-0.85673 1.2447-1.2304 0.19721-1.9072-0.71653-0.4629-1.1665-1.4754-1-2.25 0.24294-1.13-1.492-1.4084-8.7768-1.4084-8.8159 0-9.1588-0.0872-11.806-3-2.4193-2.6618-2.6564-2.7464-2.103-0.75 0.46732 1.6858 0.20387 2.25-1.0507 2.25-1.0259 0-1.4659-0.54327-1.1361-1.4028 0.29607-0.77154-0.0915-2.234-0.86121-3.25-1.8858-2.4891-1.8148-3.6961 0.17259-2.9335 1.4946 0.57351 1.5015 0.43172 0.0804-1.643-0.85541-1.2489-2.0749-2.147-2.71-1.9959-0.63511 0.15112-0.87486-0.1781-0.53276-0.73162 0.61025-0.98742-1.4335-8.3718-4.0943-14.793-1.0164-2.4528-1.9659-3.25-3.8713-3.25-2.2548 0-2.3942 0.20896-1.304 1.9545 0.67134 1.075 0.92158 2.2536 0.5561 2.619-1.1065 1.1065-3.7979-2.3106-3.1499-3.9993 0.33226-0.86589 0.10597-1.5743-0.50287-1.5743s-1.107-1.0957-1.107-2.4349-0.46433-3.6562-1.0318-5.1489c-0.90619-2.3834-0.84529-2.5591 0.5-1.4427 1.26 1.0457 1.5318 1.0051 1.5318-0.22867 0-1.7912-2.4084-4.0032-3.342-3.0696-0.36189 0.3619-0.65799 0.13299-0.65799-0.50867 0-0.64167 0.51289-1.1667 1.1398-1.1667 1.2307 0 3.7766-2.9293 3.8284-4.405 0.0175-0.49774-0.82745-0.12738-1.8776 0.82303-1.8235 1.6502-1.9396 1.6234-2.5795-0.59501-0.36854-1.2777-1.3565-3.8405-2.1954-5.6952-1.1286-2.495-1.2592-3.9562-0.50229-5.6175 0.76357-1.6759 0.66986-2.5986-0.36948-3.6379-1.19-1.19-1.1891-2.0685 0.007-6.0411 0.76947-2.5567 1.1357-4.9119 0.81381-5.2338-0.32186-0.32187 0.23177-1.488 1.2303-2.5913 1.3224-1.4612 1.4475-2.0061 0.46052-2.0061-1.0539 0-1.0883-0.26667-0.15499-1.2 0.66-0.66 1.1863-1.6725 1.1696-2.25-0.0315-1.0881-1.6022 1.189-2.0349 2.95-0.13513 0.55-0.86396 2.4797-1.6196 4.2882-0.75565 1.8085-1.8076 6.7087-2.3376 10.889-0.53004 4.1806-1.4356 8.1696-2.0123 8.8645-0.74693 0.9-0.67699 1.4354 0.2431 1.8608 0.88123 0.40744 0.94068 0.76723 0.18708 1.1321-0.60756 0.29419-0.89211 1.6468-0.63232 3.0058 0.25978 1.359-0.0459 3.0953-0.67937 3.8586-1.111 1.3386-1.751 4.1892-2.6049 11.601-1.2212 10.601-1.8342 14-2.5244 14-0.4219 0-0.53173 0.9-0.24408 2 0.29241 1.1182 0.0307 2-0.59362 2-0.61415 0-1.1166-0.70156-1.1166-1.559 0-0.85746-0.45-1.2809-1-0.94098s-1 2.4665-1 4.7257-0.26929 3.8384-0.59843 3.5092c-1.0016-1.0016-2.1703-28.167-1.2555-29.185 0.46965-0.5225 0.85392-2.12 0.85392-3.55s0.46687-3.0669 1.0375-3.6375c0.57062-0.57062 1.1847-3.6981 1.3647-6.95l0.32722-5.9125-2.6147 5.5c-1.4381 3.025-2.9269 5.6416-3.3085 5.8146-0.38161 0.17303-0.44596 0.96053-0.14301 1.75 0.30294 0.78946 0.0261 1.4354-0.6152 1.4354s-0.88789-0.45-0.54797-1 0.14148-1-0.44098-1-1.059 0.45-1.059 1-0.47656 1-1.059 1c-0.58246 0-0.80012-0.41891-0.48368-0.9309 0.31643-0.512 0.11798-1.2136-0.44099-1.559-0.55897-0.34546-1.0163-1.8016-1.0163-3.2358 0-4.2322-0.96083-2.019-1.436 3.3076-0.89146 9.994-1.3208 26.003-0.56097 20.918 0.45425-3.0399 0.60033 0.42736 0.37263 8.8445-0.20598 7.6145-0.69141 14.357-1.0787 14.984-0.91616 1.4824-1.2832 8.6707-0.44287 8.6741 0.35525 0.001 0.67962 3.1229 0.72082 6.9366s0.61147 7.5804 1.2673 8.3706c0.65578 0.79018 0.91143 2.1687 0.56809 3.0634-0.34333 0.89471-0.18372 1.6268 0.35468 1.6268s1.7134-2.3625 2.6112-5.25l1.6323-5.25-0.5453 4.4329c-0.48222 3.9202-0.23343 4.7009 2.151 6.7497 2.3918 2.0552 2.5367 2.5145 1.2833 4.0671-1.5208 1.8838-1.7614 13.41-0.38772 18.572 0.42426 1.5944 0.29447 3.7696-0.29834 5-1.6766 3.4797-2.1507 8.013-1.254 11.989 0.51971 2.3043 0.46489 3.6887-0.14607 3.6887-0.53792 0-0.77178 0.5625-0.51969 1.25 0.25208 0.6875 0.96458 1.1375 1.5833 1 0.61875-0.1375 1.125 0.2 1.125 0.75s-0.40934 1-0.90964 1c-0.50031 0-0.87868 2.0482-0.84084 4.5515 0.0456 3.0144 0.37326 4.112 0.97032 3.25 0.56859-0.82086 0.66511-0.10129 0.26138 1.9485-0.35207 1.7875-0.25488 3.25 0.21599 3.25 0.47086 0 0.82259 1.9125 0.78162 4.25-0.0869 4.9578 2.1595 13.563 4.1289 15.816 0.75267 0.86109 1.657 3.008 2.0095 4.7708 0.35258 1.7628 1.0133 3.4352 1.4682 3.7164 0.45494 0.28117 0.57367 1.1718 0.26385 1.9792-0.32368 0.84348 0.014 1.4745 0.79367 1.4833 1.0641 0.012 1.0846 0.18823 0.095 0.81642-2.0175 1.2807 0.3795 6.8555 3.2584 7.578 1.454 0.36494 2.4879 1.4595 2.6842 2.8419 0.207 1.4574 1.1243 2.3625 2.6074 2.5729 1.2584 0.1785 2.811 1.1619 3.4502 2.1853 0.63914 1.0234 1.5268 1.6353 1.9726 1.3598 0.44582-0.27553 0.17199-1.4127-0.60849-2.527zm-7.3334-7.5357c0.97297-0.25354 2.323-0.23687 3 0.0371 0.67703 0.27393-0.11903 0.48137-1.769 0.46099-1.65-0.0204-2.2039-0.2445-1.231-0.49804zm-4.6377-2.8253c-0.38708-1.0087 0.0787-1.4817 1.459-1.4817 1.278 0 1.7638-0.42682 1.3141-1.1545-0.44208-0.7153-0.27432-0.88306 0.44098-0.44098 1.6937 1.0468 1.4115 2.3876-0.74553 3.542-1.4384 0.76981-2.0382 0.65688-2.4686-0.46481zm13.155-16.482c-0.24217-1.65-0.0682-3 0.3865-3 0.45475 0 0.82681 0.825 0.82681 1.8333 0 2.5402 1.0661 3.3567 2.658 2.0356 0.84375-0.70025 1.342-0.73675 1.342-0.0983 0 0.96666-2.2477 2.2294-3.9683 2.2294-0.44259 0-1.0028-1.35-1.245-3zm39.713 1c-0.33992-0.55 0.0835-1 0.94098-1 0.85746 0 1.559 0.45 1.559 1s-0.42344 1-0.94098 1-1.2191-0.45-1.559-1zm26.5-3c0-0.61492-0.51953-0.79695-1.1545-0.40451-0.7153 0.44208-0.88306 0.27432-0.44098-0.44098 0.40993-0.66329 0.11614-1.1545-0.69051-1.1545-0.77221 0-2.2185-0.9-3.214-2-1.6277-1.7986-1.6433-2-0.15499-2 0.91025 0 1.655-0.39752 1.655-0.88337s0.90062-1.1189 2.0014-1.4067c1.1008-0.28785 1.7663-0.143 1.479 0.32191-0.28733 0.4649 0.2708 1.2892 1.2403 1.8317 0.96948 0.54255 1.3922 1.357 0.93927 1.8099-0.45289 0.45289-1.4616-0.0494-2.2417-1.1161-0.78003-1.0668-1.4182-1.5855-1.4182-1.1528 0 0.43272 0.90815 2.0621 2.0181 3.6209 1.2457 1.7494 1.6284 3.075 1 3.4634-0.55995 0.34607-1.0181 0.12611-1.0181-0.48881zm-23-0.97704c0-0.43439 1.1114-1.0023 2.4697-1.2619 1.3584-0.25966 2.2654-0.14144 2.0156 0.26272-0.66449 1.0752-4.4853 1.9264-4.4853 0.99921zm9-2.9878c0-0.53065 1.0125-1.4961 2.25-2.1455 2.2379-1.1744 2.2398-1.1692 0.34501 0.96482-2.1163 2.3835-2.595 2.6013-2.595 1.1807zm-74.493-11.024c-0.35034-0.56686 0.0511-0.7345 0.94098-0.39301 1.7324 0.66479 2.0494 1.3816 0.61096 1.3816-0.51754 0-1.2159-0.44485-1.5519-0.98855zm115.88-0.5c0.825-0.825 1.8122-1.5 2.1939-1.5 0.38163 0 0.13367 0.675-0.55102 1.5s-1.6719 1.5-2.1939 1.5c-0.52194 0-0.27399-0.675 0.55101-1.5zm2.4554-4.1831c0.72187-0.28887 1.5844-0.25335 1.9167 0.0789 0.33229 0.33229-0.25834 0.56864-1.3125 0.52522-1.165-0.048-1.4019-0.28494-0.60417-0.60416zm-29.94-8.0669c-1.2439-1.5861-1.2085-1.6214 0.37756-0.37756 0.9625 0.75485 1.75 1.5424 1.75 1.75 0 0.82304-0.82119 0.29331-2.1276-1.3724zm-90.715-33.25c0-1.375 0.22697-1.9375 0.50438-1.25s0.27741 1.8125 0 2.5-0.50438 0.125-0.50438-1.25zm0.92105-7.5833c0.048-1.165 0.28494-1.4019 0.60416-0.60417 0.28888 0.72187 0.25335 1.5844-0.079 1.9167-0.33229 0.33229-0.56864-0.25834-0.52522-1.3125zm139.99-8.6667c-0.0387-1.5125 0.37971-2.75 0.92971-2.75 1.1737 0 1.1737 0.76862 0 3.5-0.76156 1.7722-0.86743 1.6868-0.92971-0.75zm-139.51-2.0431c0.37553-0.98622 0.9347-1.5412 1.2426-1.2333 0.30789 0.30789 0.00064 1.1148-0.68278 1.7931-0.98762 0.98026-1.1025 0.8654-0.5598-0.5598zm-3.8621-14.891c-0.40496-3.0192-0.0364-5.1767 1.3241-7.75 1.0369-1.9613 1.9052-2.974 1.9295-2.2503 0.0243 0.72366-0.48309 2.2987-1.1276 3.5-0.64446 1.2013-1.0737 4.0968-0.95392 6.4343 0.27957 5.4546-0.44394 5.4954-1.1722 0.066zm62.567 3.491c0.97297-0.25354 2.323-0.23687 3 0.0371 0.67703 0.27393-0.11903 0.48137-1.769 0.46099-1.65-0.0204-2.2039-0.2445-1.231-0.49804zm7.5435-0.99012c0.72188-0.28887 1.5844-0.25335 1.9167 0.0789 0.33229 0.33229-0.25834 0.56864-1.3125 0.52522-1.165-0.048-1.4019-0.28494-0.60417-0.60416zm-66.734-2.9002c0.048-1.165 0.28494-1.4019 0.60416-0.60417 0.28888 0.72187 0.25335 1.5844-0.079 1.9167-0.33229 0.33229-0.56864-0.25834-0.52522-1.3125zm143-2c0.048-1.165 0.28494-1.4019 0.60416-0.60417 0.28887 0.72187 0.25335 1.5844-0.0789 1.9167-0.3323 0.33229-0.56864-0.25834-0.52522-1.3125zm-142.08-1.4167c0-0.55 0.45-1 1-1s1 0.45 1 1-0.45 1-1 1-1-0.45-1-1zm192.26-51.718c1.5201-0.22986 3.7701-0.22371 5 0.0136 1.2299 0.23736-0.0137 0.42542-2.7638 0.41792-2.75-0.008-3.7563-0.20172-2.2362-0.43157zm43.986-10.778c-1.4228-1.6161-1.5968-2.5042-0.49055-2.5042 0.4177 0 1.3215 0.9 2.0085 2 1.426 2.2833 0.36016 2.6373-1.5179 0.50417zm-3.75-0.50417c0.33992-0.55 0.81648-1 1.059-1 0.24254 0 0.44098 0.45 0.44098 1s-0.47656 1-1.059 1c-0.58246 0-0.7809-0.45-0.44098-1zm-203.86-3.5c0.31659-0.825 0.75246-1.5 0.96862-1.5s0.39301 0.675 0.39301 1.5-0.43588 1.5-0.96861 1.5c-0.53274 0-0.7096-0.675-0.39302-1.5zm195.44-4.3486c-1.6335-3.0522-1.2953-3.9023 0.52098-1.3092 0.8811 1.2579 1.3676 2.5216 1.081 2.8082-0.28654 0.28654-1.0074-0.38798-1.602-1.4989zm-187.58-6.1514c-0.33992-0.55 0.0835-1 0.94098-1 0.85746 0 1.559 0.45 1.559 1s-0.42344 1-0.94098 1-1.2191-0.45-1.559-1zm190.08 0.13421c-0.43077-0.697-0.51316-1.5373-0.18309-1.8674 0.89497-0.89496 1.8708 0.4213 1.3874 1.8714-0.33872 1.0162-0.57427 1.0154-1.2043-0.004zm-0.77045-3.8173c0.72187-0.28887 1.5844-0.25334 1.9167 0.079 0.33229 0.33229-0.25834 0.56864-1.3125 0.52522-1.165-0.048-1.4019-0.28494-0.60417-0.60416zm0-2c0.72187-0.28887 1.5844-0.25334 1.9167 0.079 0.33229 0.33229-0.25834 0.56864-1.3125 0.52522-1.165-0.048-1.4019-0.28494-0.60417-0.60416zm-1.1763-2.8111c0.31537-0.82184 0.97625-1.2453 1.4686-0.94098 1.4119 0.87261 1.044 2.4352-0.5734 2.4352-0.89208 0-1.2435-0.5866-0.89521-1.4943zm-170.14-8.5057c-0.33992-0.55-0.14148-1 0.44098-1s1.059 0.45 1.059 1-0.19844 1-0.44098 1-0.7191-0.45-1.059-1zm1.1667-4.6667c-0.9557-0.9557-0.82206-2.3333 0.22634-2.3333 0.49116 0 1.152 0.675 1.4686 1.5 0.58492 1.5243-0.4803 2.048-1.695 0.83333zm163.41-0.91667c0.048-1.1649 0.28494-1.4019 0.60416-0.60416 0.28887 0.72187 0.25335 1.5844-0.0789 1.9167-0.3323 0.33229-0.56864-0.25833-0.52522-1.3125zm-186.35-1.5408c0.67834-0.68342 1.4852-0.99067 1.7931-0.68279 0.30789 0.30789-0.24711 0.86705-1.2333 1.2426-1.4252 0.54269-1.5401 0.42782-0.5598-0.55979zm182.67-4.1259c0.20685-1.7875 0.42639-3.8125 0.48787-4.5 0.0615-0.6875 0.45274-1.25 0.86947-1.25 0.41672 0 0.75422 2.0242 0.75 4.4982-0.005 2.9033-0.44659 4.4989-1.2456 4.5-0.80726 0.001-1.107-1.1288-0.86179-3.2482zm-179.4-1.1589c0-0.1904 0.675-0.90637 1.5-1.5911 0.86459-0.71755 1.5-0.81474 1.5-0.22944 0 0.5585-0.675 1.2745-1.5 1.5911-0.825 0.31659-1.5 0.41983-1.5 0.22944zm5.6048-2.1786c-0.80442-2.0963-0.76664-2.4125 0.28822-2.4125 1.2501 0 2.2025 2.8229 1.1681 3.4622-0.46835 0.28945-1.1237-0.18294-1.4563-1.0498zm19.395-2.5213c0-0.82988 0.6983-2.3824 1.5518-3.45 1.4913-1.8655 1.5259-1.8437 0.8876 0.55887-0.81967 3.0853-2.4394 5.005-2.4394 2.8911zm-19.25-1.5534c0.6875-0.27742 1.8125-0.27742 2.5 0 0.6875 0.27741 0.125 0.50438-1.25 0.50438s-1.9375-0.22697-1.25-0.50438zm-12.25-1.3377c-0.33992-0.55-0.14148-1 0.44098-1s1.059 0.45 1.059 1-0.19844 1-0.44098 1-0.7191-0.45-1.059-1zm186.58-1.5833c0.048-1.1649 0.28494-1.4019 0.60416-0.60416 0.28887 0.72187 0.25335 1.5844-0.0789 1.9167-0.3323 0.33229-0.56864-0.25833-0.52522-1.3125zm-180.86-2.4129c0.0674-2.3717 0.36175-2.7667 1.4121-1.895 0.96314 0.79933 1.0489 1.6208 0.31274 2.9962-1.4118 2.6379-1.8237 2.375-1.7248-1.1012zm43.86-1.6601c-0.0446-0.6536-0.94854-0.92898-2.079-0.63337-1.1182 0.29241-2 0.0307-2-0.59362 0-0.61415 0.81-1.1166 1.8-1.1166s2.3325-0.5325 2.9833-1.1833c0.65084-0.65083 1.5153-0.85136 1.921-0.44562 0.40574 0.40574 0.25572 1.0507-0.33339 1.4333-0.5891 0.3826-1.328 1.3706-1.6421 2.1956-0.31405 0.825-0.60652 0.97963-0.64994 0.34362zm132.42-10.344c-0.33992-0.55 0.11008-1 1-1s1.3399 0.45 1 1c-0.33992 0.55-0.78992 1-1 1s-0.66008-0.45-1-1zm-17.5-16.5c-1.0196-1.2285-0.95124-1.5 0.37756-1.5 0.89234 0 1.6224 0.675 1.6224 1.5s-0.1699 1.5-0.37756 1.5c-0.20765 0-0.93775-0.675-1.6224-1.5zm-191.71 273.91c0.33186-0.33187-0.76415-4.2694-2.4356-8.75s-3.6609-9.9466-4.4211-12.147c-1.7152-4.9638-1.2778-1.963 1.6398 11.25 2.0497 9.2829 3.289 11.575 5.217 9.6466zm107.23-5.6197c0.55-0.41048 0.002-0.75322-1.2186-0.76164-1.5918-0.011-2.0513 0.42065-1.6265 1.5278 0.32569 0.84872 0.87406 1.1914 1.2186 0.76163 0.34455-0.42982 1.0765-1.1173 1.6265-1.5278zm4.9573 1.2922c0.31644-0.512 0.11065-1.2181-0.45729-1.5691-0.56794-0.35101-0.82008-0.9821-0.5603-1.4024 0.25978-0.42033-0.0929-0.76424-0.78369-0.76424-0.6908 0-1.256 1.05-1.256 2.3333 0 2.3084 1.9457 3.201 3.0573 1.4024zm-17-1c0.31644-0.512 0.11799-1.2136-0.44098-1.559-0.55897-0.34546-1.0163 0.0734-1.0163 0.9309 0 1.7565 0.60006 2.0152 1.4573 0.62812zm51.752-3.0254c-1.7479-1.5965-3.3869-2.5647-3.6423-2.1516-0.5356 0.86661 2.9715 4.1079 4.4448 4.1079 0.54371 0 0.98857 0.525 0.98857 1.1667 0 0.64166 0.31207 0.85459 0.69349 0.47317s-0.73662-1.9997-2.4845-3.5962zm-82.001-0.44255c0.9513-1.4563-0.22529-2.4845-3.2296-2.8224-2.0596-0.2316-2.4367 0.11157-2.2302 2.0294 0.14336 1.3315-0.17397 2.047-0.75 1.691-0.54917-0.3394-0.9985-0.1518-0.9985 0.41691 0 1.3165 6.232 0.17975 7.2084-1.3149zm5.7916 0.93407c0-0.25565-0.9-0.94648-2-1.5352-1.5963-0.85431-2-0.76049-2 0.46482 0 0.86851 0.86852 1.5352 2 1.5352 1.1 0 2-0.20917 2-0.46482zm76.5-3.5352c-0.43486-1.3701-0.1797-2 0.81017-2 0.79472 0 2.0051-0.675 2.6898-1.5 0.78502-0.94589 0.85205-1.5 0.18146-1.5-0.58488 0-1.3415 0.45-1.6815 1-0.33992 0.55-1.7165 1-3.059 1s-2.441 0.47656-2.441 1.059c0 0.58246 0.4176 0.80092 0.928 0.48548 0.51041-0.31545 1.2157 0.33299 1.5674 1.441 0.35166 1.108 0.86439 2.0145 1.1394 2.0145 0.275 0 0.21435-0.9-0.13478-2zm-6-1c0.33992-0.55 0.14148-1-0.44098-1s-1.059 0.45-1.059 1 0.19844 1 0.44098 1 0.7191-0.45 1.059-1zm-62.931-3.1118c0.37792-0.6115 0.25251-1.399-0.2787-1.75-2.0271-1.3394-2.0558-4.8946-0.0534-6.6091 1.3847-1.1856 1.6711-2.021 0.94271-2.7494-0.72842-0.72842-1.8165-0.17031-3.5814 1.837-2.7998 3.1844-3.394 5.6259-1.1606 4.7688 1.1036-0.42348 1.347 0.16487 1.0475 2.5314-0.39557 3.1257 1.5872 4.3931 3.0839 1.9713zm152.97-5.8191c-0.31644-0.512-0.11799-1.2136 0.44098-1.559 0.55897-0.34546 1.0163-1.0837 1.0163-1.6405 0-0.55682-0.70369-0.30872-1.5638 0.55135-1.3651 1.3652-1.2527 3.5791 0.18179 3.5791 0.275 0 0.24111-0.41891-0.0753-0.9309zm-144.54-1.6915c0-1.3288-0.27149-1.3971-1.5-0.37756-0.825 0.68469-1.5 1.4148-1.5 1.6224 0 0.20766 0.675 0.37756 1.5 0.37756s1.5-0.7301 1.5-1.6224zm-95.338-6.6276c-0.27741-0.6875-0.50438-0.125-0.50438 1.25s0.22697 1.9375 0.50438 1.25 0.27741-1.8125 0-2.5zm251.84-10.75c0.33992-0.55-0.0835-1-0.94098-1-0.85746 0-1.559 0.45-1.559 1s0.42344 1 0.94098 1 1.2191-0.45 1.559-1zm-92.549-3.4406c0.65756-0.79231 1.7921-1.2116 2.5213-0.93183 0.72916 0.27981 1.6196 0.0332 1.9788-0.54798 0.37475-0.60636 0.0837-0.83823-0.68293-0.54404-0.94202 0.36148-1.2762-0.30542-1.1332-2.2615 0.11156-1.5258 0.29122-2.9991 0.39923-3.2741 0.10802-0.275 0.12444-1.4 0.0365-2.5-0.13584-1.6991 0.0115-1.7743 0.97918-0.5 0.96179 1.2665 1.0466 1.2149 0.54475-0.33179-0.32689-1.0075-0.59434-2.175-0.59434-2.5945 0-0.41947-1.0994-2.0421-2.4431-3.6058s-2.2734-3.1177-2.066-3.4533c0.20739-0.33557-0.0857-1.2636-0.65128-2.0624-0.84407-1.192-0.92967-1.1444-0.47769 0.26572 0.30287 0.94489 0.12032 1.984-0.40566 2.309-0.52598 0.32508-0.99186 0.002-1.0353-0.71797-0.0563-0.93268-0.21857-0.96579-0.56461-0.1152-0.26711 0.65661-1.2054 0.91763-2.0851 0.58006-0.99005-0.37991-1.3486-0.20793-0.94114 0.4514 0.36207 0.58583-0.0515 1.3375-0.91911 1.6705-0.86758 0.33292-1.3824 1.1676-1.144 1.8548 0.2384 0.68721-0.15422 2.937-0.87248 4.9995s-1.0109 3.75-0.65028 3.75c0.3606 0 0.0969 0.55874-0.586 1.2416-0.98886 0.98886-1.4336 0.93796-2.1847-0.25-0.80021-1.2657-0.94536-1.2266-0.95836 0.25836-0.008 0.9625 0.46683 1.75 1.0561 1.75 0.58928 0 1.7103 0.63884 2.4911 1.4196 1.0959 1.0959 1.1366 1.5534 0.17857 2.006-0.68259 0.32249-0.0763 0.36834 1.3472 0.10189 1.4331-0.26822 3.4416 0.16124 4.5 0.96222 2.419 1.8306 2.8946 1.8382 4.3624 0.0697zm-2.1382-18.243c0.72187-0.28887 1.5844-0.25335 1.9167 0.0789 0.33229 0.33229-0.25834 0.56864-1.3125 0.52522-1.165-0.048-1.4019-0.28494-0.60417-0.60416zm10.88 13.952c-0.25354-0.97297-0.47766-0.41903-0.49804 1.231-0.0204 1.65 0.18706 2.4461 0.46099 1.769 0.27392-0.67703 0.29059-2.027 0.0371-3zm-24.174-1.1825c-0.52182-2.3759-0.25972-3.0341 1.4206-3.5674 1.1332-0.35967 2.0604-1.1507 2.0604-1.7578 0-0.60713 0.74474-1.9268 1.655-2.9326 0.9902-1.0942 1.191-1.8287 0.5-1.8287-0.63525 0-1.155 0.45-1.155 1s-0.675 1-1.5 1c-1.9621 0-1.8942-0.89862 0.25-3.3129 1.7031-1.9176 1.6897-1.9334-0.5-0.5882-1.2375 0.76021-2.25 1.7505-2.25 2.2007 0 0.45016-0.44485 0.54354-0.98855 0.20752-0.57984-0.35836-0.72631 0.0724-0.35428 1.0419 0.35934 0.93643 0.0293 2.0359-0.76145 2.5366-1.0923 0.69167-0.98165 0.88709 0.50927 0.89908 1.7821 0.0143 1.7982 0.13327 0.25 1.844-1.966 2.1724-2.0739 3.3523-0.45499 4.9713 1.7926 1.7926 2.0233 1.493 1.319-1.7134zm-4.269 0.25115c-0.6875-0.27741-1.8125-0.27741-2.5 0s-0.125 0.50439 1.25 0.50439 1.9375-0.22698 1.25-0.50439zm114.4-3.7946c-0.32568-0.84872-1.1688-1.5076-1.8735-1.4642-1.0036 0.0618-1.0104 0.18827-0.0314 0.58333 0.6875 0.27741 1.25 1.2169 1.25 2.0877 0 0.87083 0.28059 1.3027 0.62354 0.95979 0.34294-0.34294 0.35707-1.3179 0.0314-2.1667zm-114.65-2.5431c0-1.1-0.35357-2-0.78571-2-0.43215 0-0.78572 0.9-0.78572 2s0.35357 2 0.78572 2c0.43214 0 0.78571-0.9 0.78571-2zm116-0.44098c0-1.0555-1.9191-1.4989-2.4899-0.57533-0.34546 0.55897 0.0734 1.0163 0.9309 1.0163 0.85746 0 1.559-0.19844 1.559-0.44098zm-83.317-7.7465c-0.31922-0.79773-0.55618-0.56078-0.60416 0.60417-0.0434 1.0542 0.19292 1.6448 0.52522 1.3125 0.33229-0.3323 0.36781-1.1948 0.0789-1.9167zm-170.99-3.5435c-0.25354-0.97297-0.47766-0.41903-0.49804 1.231-0.0204 1.65 0.18706 2.4461 0.46099 1.769 0.27392-0.67703 0.29059-2.027 0.0371-3zm144.32 2.481c0.0111-0.9094 0.25211-0.87618 0.88435 0.12188 0.47797 0.75454 1.3059 1.2045 1.8398 1 0.53392-0.20453 0.23092-1.1381-0.67334-2.0746-1.5466-1.6018-1.7164-1.5869-2.8636 0.25-0.73271 1.1732-0.81694 1.9527-0.21101 1.9527 0.55466 0 1.0154-0.5625 1.0238-1.25zm30.109-2.0167c-0.98762-0.98026-1.1025-0.8654-0.5598 0.5598 0.37553 0.98622 0.93469 1.5412 1.2426 1.2333 0.30789-0.30789 0.00064-1.1148-0.68278-1.7931zm-3.441-1.9208c-0.31922-0.79773-0.55618-0.56078-0.60416 0.60417-0.0434 1.0542 0.19292 1.6448 0.52522 1.3125 0.33229-0.3323 0.36781-1.1948 0.0789-1.9167zm-26.506-2.806c0.17775-0.78797 1.3357-2.5697 2.5732-3.9594 2.0826-2.3387 2.744-4.1826 2.3156-6.4555-0.0942-0.4996 0.3602-1.2368 1.0097-1.6382 1.2151-0.75097 0.45415-2.9534-1.0204-2.9534-0.92174 0-4.0549 6.1507-4.0549 7.9602 0 0.63683 0.45 0.87977 1 0.53985 1.8266-1.1289 1.0331 1.2319-0.88325 2.628-1.0358 0.75458-2.1531 2.947-2.4829 4.872-0.57199 3.3388 0.75894 2.4817 1.5429-0.99351zm26.485-2.2565c-0.27741-0.6875-0.50439-0.125-0.50439 1.25s0.22698 1.9375 0.50439 1.25 0.27741-1.8125 0-2.5zm0.26743-6.8333c0.0387 0.77916 0.28041 1.2065 0.53722 0.94973 0.25682-0.25681 0.0705-1.7943-0.41404-3.4167-0.71052-2.379-0.89762-2.5258-0.96694-0.75875-0.0473 1.205-0.54329 2.4736-1.1023 2.8191-0.55897 0.34546-0.70635 1.1296-0.3275 1.7426 0.44037 0.71253 0.96193 0.41709 1.446-0.8191 0.44807-1.1442 0.7859-1.3553 0.82749-0.51695zm84.07 0.58333c0-0.825-0.45-1.5-1-1.5s-1 0.675-1 1.5 0.45 1.5 1 1.5 1-0.675 1-1.5zm-1.4779-4.4643c-0.28082-0.45437 0.13893-1.0754 0.93276-1.38 0.92676-0.35563 1.2582-0.0714 0.92608 0.79407-0.28449 0.74135-0.0366 1.645 0.55093 2.0081 1.3559 0.83801 1.411-4.38 0.0682-6.4579-0.71597-1.1079-0.97338-1.1546-0.98469-0.17857-0.008 0.72678-0.69031 1.9964-1.5153 2.8214-1.6752 1.6752-2.0717 4.8285-0.48369 3.8471 0.55897-0.34546 0.78656-0.99987 0.50575-1.4542zm-39.463-3.8732c-0.85748-0.18561-3.2764-1.6933-5.3753-3.3504-2.099-1.6571-4.0864-2.7427-4.4167-2.4125-0.33021 0.33022-0.0488 0.60039 0.6253 0.60039 0.67413 0 0.94068 0.46115 0.59234 1.0248-0.34834 0.56362-0.2624 0.96033 0.19098 0.88158 2.0217-0.35121 2.6971 0.2065 1.3243 1.0936-1.1915 0.77001-0.98583 0.97906 1 1.0165 3.1826 0.06 5.9713 2.1602 6.0997 4.5938 0.0736 1.3949 0.28543 1.2351 0.80905-0.61024 0.52433-1.8479 0.3027-2.588-0.84968-2.8375zm7.3717 3.9495c0.30185-0.4884-0.7966-1.0855-2.441-1.3268-1.6444-0.24134-2.9898-0.27724-2.9898-0.0798 0 0.2735 2.7882 1.5997 4.691 2.2312 0.10504 0.0349 0.43795-0.33621 0.7398-0.82461zm28.277-1.3357c0.9437-0.74315 0.9437-1.237 0-2.2587-1.3832-1.4976-2.2967-1.1542-3.6484 1.3715-0.73658 1.3763-0.56847 1.7845 0.74462 1.808 0.9328 0.0167 2.2395-0.39764 2.9038-0.92074zm-56.708-2.7763c-0.5887-1.1-1.2954-2-1.5704-2s-0.0183 0.9 0.57037 2c0.5887 1.1 1.2954 2 1.5704 2s0.0183-0.9-0.57037-2zm28 1.607c0-0.21616-0.675-0.65203-1.5-0.96862-0.825-0.31658-1.5-0.13972-1.5 0.39301 0 0.53274 0.675 0.96862 1.5 0.96862s1.5-0.17686 1.5-0.39301zm-68.444-1.5168c-0.74081-1.1987 0.39754-4.0902 1.6102-4.0902 0.52361 0 0.67391 0.45 0.33399 1-0.71663 1.1595-0.29232 1.2413 1.9589 0.37741 1.316-0.50499 1.1145-0.88613-1.067-2.0179-1.4792-0.76742-2.7398-1.2748-2.8013-1.1274-0.0615 0.14734-0.93866 1.252-1.9492 2.4549-1.9528 2.3244-1.5025 4.313 0.97665 4.313 0.825 0 1.247-0.40939 0.93774-0.90976zm7.4442 0.4546c0-0.77161-2.9763-1.3923-3.3987-0.70875-0.25451 0.41181 0.40608 0.81419 1.468 0.89418 1.0619 0.08 1.9307-0.003 1.9307-0.18543zm2-3.1518c0-0.21615-0.675-0.39301-1.5-0.39301s-1.5 0.43588-1.5 0.96862c0 0.53273 0.675 0.70959 1.5 0.39301 0.825-0.31659 1.5-0.75246 1.5-0.96862zm2.3816-0.94495c0.34149-0.88992 0.17385-1.2913-0.39301-0.94098-0.5437 0.33602-0.98855 1.0344-0.98855 1.5519 0 1.4384 0.71677 1.1215 1.3816-0.61096zm25.386-1.4481c-0.68696-1.1-1.9283-1.99-2.7585-1.9778-1.0194 0.015-0.69776 0.65714 0.99055 1.9778 3.1442 2.4594 3.3039 2.4594 1.7679 0zm7.2321 0.40189c-2.3702-1.4479-2.3831-1.5029-0.25-1.0582 1.2375 0.25798 2.25 0.0612 2.25-0.43733 0-1.1976-3.7186-1.1708-4.462 0.0322-0.31902 0.5162 0.21692 1.4025 1.191 1.9696 2.8372 1.6517 4.0275 1.1776 1.271-0.50624zm-34.261-2.0292c3.3408-0.89542 1.6683-2.4041-1.8787-1.6947-1.9972 0.39944-3.34 0.16345-3.8603-0.67847-0.51239-0.82906-1.4601-1.0046-2.6488-0.49049-1.7581 0.76033-1.7506 0.82266 0.14908 1.2428 1.1 0.24327 2.4275 0.84863 2.95 1.3452 1.1029 1.0483 2.1938 1.1051 5.2888 0.2756zm39.261-0.87266c-0.68469-0.825-1.9166-1.5-2.7376-1.5-0.82098 0-3.0412-1.6875-4.9339-3.75-2.9254-3.1879-3.3064-3.3753-2.5422-1.25 0.5251 1.4603 2.9399 3.634 5.8063 5.2266 5.7182 3.1772 6.0723 3.2795 4.4074 1.2734zm-8.5-1.5c-0.33992-0.55-1.3146-1-2.166-1-0.95012 0-1.3304-0.56695-0.98465-1.468 0.30982-0.80739 0.13297-1.734-0.39301-2.059-0.52598-0.32508-0.95633-0.0879-0.95633 0.52699 0 0.61492-0.43035 0.85207-0.95633 0.52699-0.52598-0.32507-0.68475-1.3641-0.35282-2.309 0.46635-1.3275 0.32164-1.4582-0.63677-0.57487-2.2263 2.0519 1.6909 6.5865 6.2549 7.2409 0.44496 0.0638 0.5309-0.334 0.19098-0.884zm-192.5-4c0-1.1-0.35357-2-0.78571-2-0.43215 0-0.78572 0.9-0.78572 2s0.35357 2 0.78572 2c0.43214 0 0.78571-0.9 0.78571-2zm-3.307-2.731c-0.25354-0.97297-0.47766-0.41903-0.49804 1.231-0.0204 1.65 0.18706 2.4461 0.46099 1.769 0.27392-0.67703 0.29059-2.027 0.0371-3zm5.807-0.26903c0.33992-0.55 0.14148-1-0.44098-1s-1.059 0.45-1.059 1 0.19844 1 0.44098 1 0.7191-0.45 1.059-1zm211.83-1.1029c1.783-0.81241 3.0465-0.79849 4.7971 0.0529 1.9346 0.94085 1.8187 0.68201-0.62351-1.3922-3.1332-2.661-5.5-3.306-5.5-1.4988 0 0.58246 0.45 0.7809 1 0.44098s1-0.17898 1 0.35765-1.2375 1.4277-2.75 1.9801c-1.5125 0.55241-2.2087 1.0399-1.547 1.0833 0.66162 0.0434 2.2922-0.41735 3.6235-1.0239zm-25.237-1.7294c-1.7545-3.2783-4.0153-4.6451-5.3822-3.254-0.66419 0.67598-0.75762 1.1436-0.20762 1.0392 1.8446-0.35019 3.5011 0.0402 3.3816 0.79699-0.32766 2.0752 0.27008 3.25 1.6536 3.25 1.1785 0 1.3073-0.42576 0.5546-1.8322zm19.91 0.83224c0-0.55-0.45-1-1-1s-1 0.45-1 1 0.45 1 1 1 1-0.45 1-1zm3-1c0-0.55-0.19844-1-0.44098-1s-0.7191 0.45-1.059 1c-0.33992 0.55-0.14148 1 0.44098 1s1.059-0.45 1.059-1zm-7.029-2.0391c-2.354-1.4887-3.5472-1.1027-1.4137 0.4573 1.0668 0.78003 2.1522 1.2056 2.4122 0.94563 0.25993-0.25994-0.18936-0.89126-0.99843-1.4029zm5.029 0.0704c0-0.53273-0.675-0.70959-1.5-0.39301-0.825 0.31659-1.5 0.75246-1.5 0.96862 0 0.21615 0.675 0.39301 1.5 0.39301s1.5-0.43588 1.5-0.96862zm-8.9847-3.4942c0.008-0.57046 0.45153-0.3622 0.98469 0.4628 0.82843 1.2819 0.9716 1.2456 0.98469-0.25 0.008-0.9625 0.57781-1.7637 1.2653-1.7804 0.6875-0.0167 0.39998-0.52407-0.63893-1.1274-1.489-0.86478-2.0817-0.7525-2.7997 0.53041-0.50092 0.89509-1.3935 1.6274-1.9835 1.6274-0.68717 0-0.6253-0.53915 0.17213-1.5 0.8601-1.0364 0.89795-1.5 0.12244-1.5-1.0448 0-1.5525 1.3877-1.2161 3.3243 0.0787 0.45338-0.3253 0.53479-0.8979 0.1809-0.57259-0.35388-0.78219-1.0623-0.46575-1.5743 0.31643-0.51199-0.23873-0.93779-1.2337-0.94621-1.5499-0.0131-1.5942-0.16575-0.30902-1.0655 1.1742-0.82211 1.0114-0.91274-0.75-0.4173-1.6224 0.45637-2.25 0.20992-2.25-0.8836 0-0.83407-1.505-2.6644-3.3444-4.0674-3.8136-2.9087-4.8355-3.1833-4.0294-1.0825 0.30991 0.80761 0.85829 1.4293 1.2186 1.3816 0.36033-0.0477 1.3301-0.0266 2.1551 0.0469 1.3333 0.11888 1.3333 0.24144 0 1.1031-0.825 0.53316-0.99044 0.97627-0.36765 0.98469 0.6228 0.008 2.9101 1.793 5.0828 3.9658 3.7252 3.7252 8.2625 5.1392 8.3002 2.5868zm9.9847-0.5372c-0.825-0.53316-2.4-0.93141-3.5-0.88501-1.6476 0.0695-1.5596 0.22543 0.5 0.88501 3.5357 1.1323 4.7521 1.1323 3 0zm13-1.9368c0-0.48176-0.9-0.64058-2-0.35292-1.3909 0.36373-2 0.0307-2-1.0936 0-1.1527 0.93274-1.623 3.25-1.6389 5.9838-0.0409 10.993-6.8716 7.2914-9.9434-1.3721-1.1388-1.4948-1.061-0.90495 0.57421 0.37522 1.0403 0.33336 1.5768-0.093 1.1922-0.42639-0.38459-1.065-2.1159-1.4191-3.8474-0.46687-2.2827-1.7591-3.8068-4.7005-5.5439l-4.0566-2.3957-3.4275 6.0936c-3.6458 6.4818-6.8854 8.8927-11.949 8.8927-1.8178 0-2.852 0.41525-2.4906 1 0.91361 1.4782-2.1862 1.2136-5.4294-0.46348-3.2935-1.7031-11.071-4.4709-11.071-3.9399 0 0.72076 8.6418 4.8261 15 7.1259 11.549 4.1773 24 6.4292 24 4.3406zm-9-2.0632c1.9701-1.2732 4.2869-1.2732 3.5 0-0.33992 0.55-1.604 0.99311-2.809 0.98469-1.7812-0.0125-1.9105-0.1966-0.69098-0.98469zm-56-1c0-0.55-0.45-1-1-1s-1 0.45-1 1 0.45 1 1 1 1-0.45 1-1zm-0.27083-2.6042c-0.3323-0.33229-1.1948-0.36781-1.9167-0.0789-0.79773 0.31922-0.56078 0.55618 0.60417 0.60416 1.0542 0.0434 1.6448-0.19293 1.3125-0.52522zm-76.372-7.9263c3.6603-0.1734 5.477-0.84952 7.3705-2.743l2.5129-2.5129-4.0616 1.0841c-2.2339 0.59626-3.8365 1.4482-3.5615 1.8932 0.27504 0.44503-0.17493 0.80914-0.99993 0.80914-2.4969 0-2.7479-1.7263-0.35678-2.4536 1.2313-0.37455 1.7291-0.89559 1.1062-1.1579-0.6229-0.26229-3.5212 0.62094-6.4408 1.9627-2.9195 1.3418-5.9025 2.2116-6.6288 1.9328-0.9064-0.34782-1.1151 0.0288-0.66534 1.2008 0.51755 1.3487 1.308 1.5507 3.7613 0.96115 1.7084-0.41052 5.292-0.84996 7.9637-0.97653zm7.5608-6.1249c1.2998-0.91046 3.9875-2.4867 5.9725-3.5028 3.4421-1.7619 3.4703-1.8167 0.60913-1.1846-2.9141 0.64378-10.5 4.8741-10.5 5.8554 0 0.94163 1.5781 0.47124 3.9184-1.1679zm61.082-2.3446c0-0.55-0.47656-1-1.059-1-0.58246 0-0.7809 0.45-0.44098 1s0.81648 1 1.059 1c0.24254 0 0.44098-0.45 0.44098-1zm-86.75-7.75c-0.1375-0.6875 0.3699-1.25 1.1276-1.25 0.75765 0 1.9336-0.67005 2.6133-1.489 0.67967-0.81894 1.5438-1.2986 1.9202-1.066 0.37644 0.23265 1.338-0.0292 2.1367-0.58187 1.0649-0.73682 0.55705-0.89465-1.9036-0.59166-3.7869 0.46627-19.315-3.3786-21.927-5.4294-0.94021-0.73814-2.3318-1.9304-3.0923-2.6496-0.76058-0.71913-1.9998-1.0708-2.7539-0.78139-0.90536 0.34743-1.3763-0.22745-1.3864-1.6925-0.0124-1.7991-0.1986-1.935-0.98469-0.71862-1.7353 2.6852-1.0567 7.2006 1.75 11.643 3.056 4.8374 4.799 5.6803 3.8394 1.8566-0.36183-1.4416-0.19606-2.5 0.39159-2.5 0.56048 0 1.019 0.45 1.019 1s0.87344 1 1.941 1c1.0675 0 2.227 0.46277 2.5766 1.0284 1.9244 3.1137 13.308 5.1 12.732 2.2216zm-6.7873-0.76877c-2.9582-1.2908-2.9567-1.292 1.0373-0.74547 4.6441 0.63545 5.0656 0.83323 3.2558 1.5277-0.73175 0.2808-2.6636-0.0712-4.2931-0.78223zm-14.516-3.4812c-0.0463-0.275-0.25881-1.8435-0.47221-3.4856s-0.8574-3.1421-1.4311-3.3333c-1.7655-0.5885-1.1554-1.747 1.0057-1.9098 1.6152-0.12166 1.9152 0.26677 1.4174 1.8352-0.34729 1.0942-0.17001 2.5455 0.39397 3.2251 0.64484 0.77699 0.68119 1.7798 0.0979 2.702-0.51012 0.80655-0.96538 1.2415-1.0117 0.96646zm29.054 4.4286c0-0.31428-0.675-1.2464-1.5-2.0714-1.3973-1.3973-1.6329-1.3505-1.4146 0.28106 0.047 0.351-0.51552 1.0191-1.25 1.4847-0.91753 0.58161-0.47488 0.85129 1.4146 0.86181 1.5125 0.008 2.75-0.24183 2.75-0.55612zm78.683-1.6161c-0.31922-0.79773-0.55618-0.56078-0.60416 0.60417-0.0434 1.0542 0.19292 1.6448 0.52522 1.3125 0.33229-0.3323 0.36781-1.1948 0.0789-1.9167zm-75.92-1.9759c0.63987-0.63987 2.7549-1.1036 4.7-1.0304 3.3296 0.12518 4.6478-1.0014 2.6305-2.2481-1.4088-0.87069-0.0609-4.5053 2.0995-5.6615 1.8732-1.0025 1.8506-1.1264-0.62491-3.4206-2.7802-2.5766-3.2343-4.0873-1.4113-4.695 1.6861-0.56202-4.9402-6.441-9.8963-8.7802-6.7119-3.1679-7.7389-2.7898-9.7448 3.5874-2.6638 8.4688-9.2493 11.769-14.789 7.4118-2.7581-2.1695-4.7271-2.5861-4.7271-1 0 0.55 0.525 1 1.1667 1 0.64166 0 0.89162 0.27505 0.55545 0.61122-1.0052 1.0051 4.7287 5.256 10.58 7.8439 3.0098 1.331 8.3354 2.7322 11.835 3.1137 7.8446 0.85522 8.7872 1.3534 5.7477 3.0382-1.5462 0.85704-1.8399 1.3345-0.8351 1.3575 0.8525 0.0195 2.0735-0.48809 2.7134-1.128zm16.237 0.26872c0-0.50645 1.5211-0.55163 3.5053-0.10411 1.9279 0.43482 3.7356 0.41806 4.017-0.0373 0.2814-0.45531-0.7335-0.97096-2.2553-1.1459-2.4652-0.28338-2.7526-0.69972-2.6358-3.8181 0.0721-1.925-0.0779-2.9375-0.33333-2.25-0.25545 0.6875-1.1323 1.25-1.9485 1.25-1.029 0-1.2894 0.61329-0.84928 2 0.45047 1.4193 0.1797 2-0.93261 2-0.86207 0.00005-1.5674-0.37495-1.5674-0.83328 0-0.45834-0.675-0.83334-1.5-0.83334s-1.5 0.87749-1.5 1.95c0 1.4576 0.50496 1.8179 2 1.427 1.1-0.28766 2-0.11514 2 0.38337s0.45 0.90638 1 0.90638 1-0.40261 1-0.89469zm11.729-0.70948c-0.3323-0.33229-1.1948-0.36781-1.9167-0.0789-0.79773 0.31922-0.56078 0.55618 0.60417 0.60416 1.0542 0.0434 1.6448-0.19293 1.3125-0.52522zm-12.729-9.4548c0-0.51754-0.45-0.94098-1-0.94098s-1 0.70156-1 1.559c0 0.85746 0.45 1.2809 1 0.94098s1-1.0415 1-1.559zm64.51-12.83c0.22864-3.1034-1.1548-2.5694-2.3693 0.91458-0.93094 2.6705-0.86294 2.9182 0.57954 2.111 0.89884-0.50302 1.7042-1.8645 1.7898-3.0256zm-27.792-0.99526c-0.66987-0.21135-1.872-0.88635-2.6714-1.5-0.79939-0.61365-0.57439 0.073 0.5 1.526 1.2882 1.7421 2.1979 2.2529 2.6714 1.5 0.39488-0.62793 0.16988-1.3146-0.5-1.526zm95.282-6.1157c0-0.55-0.45-1-1-1s-1 0.45-1 1 0.45 1 1 1 1-0.45 1-1zm-191.34-11.68c-0.25956-0.25956-1.3779 0.0129-2.4851 0.60551-2.1995 1.1771-5.1581 0.49509-5.1581-1.189 0-0.58282-0.26096-0.79872-0.5799-0.47977-0.31895 0.31894 0.18003 1.7397 1.1088 3.1572l1.6888 2.5774 2.9487-2.0997c1.6218-1.1548 2.7364-2.312 2.4768-2.5716zm43.715 1.1804c-0.67864-1.7685-0.73635-1.7651-1.4076 0.0828-0.83786 2.3064-0.0953 3.9719 1.1954 2.6812 0.50595-0.50595 0.60147-1.7498 0.21227-2.764zm37.559 0.2267c-0.22917-0.15563-1.3167-0.94313-2.4167-1.75-1.85-1.357-1.8971-1.3358-0.62756 0.28297 0.75485 0.9625 1.8424 1.75 2.4167 1.75 0.57432 0 0.85672-0.12734 0.62756-0.28297zm-116.21-6.967c-0.23835-1.2375-0.43337-0.225-0.43337 2.25s0.19502 3.4875 0.43337 2.25c0.23836-1.2375 0.23836-3.2625 0-4.5zm30.294 3.25c0-1.1-0.40787-2-0.90638-2s-0.67102 0.9-0.38337 2c0.28766 1.1 0.69553 2 0.90638 2s0.38337-0.9 0.38337-2zm3-2c0-1.1161-0.66667-2-1.5085-2-1.2582 0-1.3012 0.33189-0.25946 2 0.68696 1.1 1.3658 2 1.5085 2s0.25945-0.9 0.25945-2zm213.61-3.4688c-0.99643-1.5207-2.5475-2.4997-3.8855-2.4523-2.0197 0.0716-1.9753 0.17099 0.47727 1.0681 1.4873 0.54402 2.9909 1.8924 3.3413 2.9964s0.88196 1.7624 1.1812 1.4631c0.29929-0.29929-0.20217-1.6832-1.1144-3.0754zm-233.27-13.741c0.45451-3.8376 0.21104-5.8291-0.92444-7.5621-1.8309-2.7943-3.3882-2.5005-5.3693 1.013-1.3058 2.3159-1.2622 2.9395 0.42445 6.0715 1.1278 2.0942 2.4146 3.2853 3.2167 2.9775 0.90101-0.34575 1.1353 0.0123 0.71856 1.0983-0.34008 0.88623-0.18286 1.6113 0.34937 1.6113s1.2454-2.3443 1.5847-5.2096zm234.79 1.9429c-0.98762-0.98027-1.1025-0.8654-0.5598 0.55979 0.37553 0.98623 0.93469 1.5412 1.2426 1.2333 0.30789-0.30789 0.00064-1.1148-0.68278-1.7931zm-180.56-1.4763 1.7973-2.743-2.3775 1.5786c-2.5407 1.687-3.7826 3.9074-2.1854 3.9074 0.53258 0 1.7771-1.2344 2.7656-2.743zm-37.885 0.493c1.2749-1.7192 3.3783-6.75 2.8222-6.75-0.24908 0-1.2022 1.4625-2.1181 3.25-0.91587 1.7875-2.1649 3.5806-2.7757 3.9847-0.8089 0.53517-0.80425 0.73885 0.0171 0.75 0.62015 0.008 1.5447-0.54718 2.0545-1.2347zm24.303-5.559c0.008-0.71996-0.43469-1.0309-0.98469-0.69098s-0.99311 1.604-0.98469 2.809c0.0125 1.7812 0.1966 1.9105 0.98469 0.69099 0.53316-0.825 0.97627-2.0891 0.98469-2.809zm-2.8536-1.533c-0.61257-0.73811-0.81767-1.6381-0.45578-2 0.3619-0.3619 0.13299-0.65799-0.50867-0.65799-0.64167 0-1.1667 0.9-1.1667 2 0 1.1782 0.66667 2 1.6224 2 1.2439 0 1.3626-0.31312 0.50868-1.342zm4.437-4.009c-0.31575-3.9794-1.2055-5.649-3.0105-5.649-1.6634 0-2.8238 4.1339-1.5249 5.4328 0.98777 0.98776 1.4023-0.42531 1.0071-3.4328-0.1622-1.2341 0.11175-1.1987 1.5456 0.19981 1.4428 1.4073 1.5213 1.9666 0.4562 3.25-1.0555 1.2718-1.0401 1.5628 0.0859 1.6205 0.75485 0.0387 0.47245 0.45703-0.62755 0.92972-1.9366 0.83218-1.9313 0.86165 0.16699 0.92971 1.8558 0.0602 2.1288-0.41099 1.9011-3.2807zm190.43-0.649c0-0.55-0.47656-1-1.059-1-0.58246 0-0.7809 0.45-0.44098 1s0.81648 1 1.059 1c0.24254 0 0.44098-0.45 0.44098-1zm-213.33-3.456c0-0.80081-0.375-1.2242-0.83334-0.94099-0.45833 0.28327-0.83333 0.93847-0.83333 1.456 0 0.51754 0.375 0.94099 0.83333 0.94099 0.45834 0 0.83334-0.65521 0.83334-1.456zm1.4777-8.205c0.58826-0.71682 0.59509-1.382 0.0179-1.7388-1.0349-0.6396-2.2032 2.7855-2.0124 5.8997 0.0912 1.4894 0.23987 1.3617 0.58216-0.5 0.2528-1.375 0.88837-3.0224 1.4124-3.661zm0.85562-4.839c0-0.825-0.17685-1.5-0.39301-1.5s-0.65203 0.675-0.96862 1.5c-0.31658 0.825-0.13972 1.5 0.39302 1.5 0.53273 0 0.96861-0.675 0.96861-1.5zm203.64-2.9962c-0.67457-1.7579-2.6497-1.152-2.6245 0.80518 0.009 0.73487 0.42565 0.61652 1.0868-0.30901 0.84924-1.1889 0.96135-1.0035 0.54064 0.89405-0.37912 1.7099-0.22308 2.0863 0.54603 1.3172 0.59226-0.59226 0.79526-1.8106 0.45112-2.7074zm-187.65-1.93c0-0.24254-0.45-0.71909-1-1.059-0.55-0.33992-1-0.14148-1 0.44098s0.45 1.059 1 1.059 1-0.19845 1-0.44099zm181.39-1.1408c1.0941-2.8512 0.63642-3.8394-0.86121-1.8593-0.82702 1.0934-1.4821 1.3952-1.5 0.69113-0.0537-2.1121-2.0318-1.382-2.0318 0.75 0 2.4324 3.4925 2.7648 4.393 0.41821zm7.3964 0.18265c-0.70919-0.76953-1.447-1.2495-1.6396-1.0665-0.59314 0.56346 0.91014 2.4657 1.9486 2.4657 0.53923 0 0.40017-0.62962-0.30901-1.3991zm-182.13-0.27476c-0.95271-0.95272-5.6072-1.0507-5.0232-0.10575 0.26501 0.42881 1.6553 0.77965 3.0895 0.77965s2.3044-0.30326 1.9338-0.6739zm-45.15-13.06c-0.38242-4.0811-0.90613-7.2093-1.1638-6.9516-0.25766 0.25766-0.12772 4.4536 0.28876 9.3244s0.94018 7.999 1.1638 6.9516c0.22361-1.0474 0.0937-5.2433-0.28876-9.3244zm28.242 2.6497c1.1126-0.0503 1.278-0.26719 0.45539-0.59725-1.0028-0.40238-1.0269-0.83741-0.1075-1.9452 0.65133-0.78481 0.93479-1.6764 0.6299-1.9813-0.7338-0.73381-5.7538 7.8776-5.6491 9.6905 0.0449 0.77668 0.72116-0.0504 1.5029-1.8378 0.78897-1.8041 2.1986-3.2851 3.1684-3.329zm7.369 4.1754c-0.75797-0.48009-1.0689-1.3732-0.69099-1.9847 0.37792-0.61149 0.23713-1.1118-0.31287-1.1118s-1.3092 0.50031-1.6871 1.1118c-0.68762 1.1126 1.1865 2.8576 3.0691 2.8576 0.55 0 0.37985-0.3928-0.37811-0.87288zm39.878-3.0965c1.213-0.78388 1.0694-0.97231-0.75-0.98469-1.2375-0.008-2.25 0.43469-2.25 0.98469 0 1.2529 1.0612 1.2529 3 0zm149-1.3776c0-0.20765-0.7875-0.99515-1.75-1.75-1.5861-1.2439-1.6214-1.2085-0.37756 0.37756 1.3064 1.6658 2.1276 2.1955 2.1276 1.3724zm-136.13-8.4885c-0.58604-0.20134-1.7988 0.36716-2.6949 1.2633-1.5059 1.5059-1.4251 1.5336 1.0655 0.36607 1.4822-0.69484 2.2154-1.4281 1.6294-1.6294zm43.211 1.27c1.1565-1.3935 1.0233-1.5521-1.0492-1.25-1.3056 0.19032-2.5591 0.90854-2.7855 1.596-0.59252 1.7992 2.2686 1.541 3.8347-0.34604zm-25.553-2.2108c-0.30789-0.30789-1.1148-0.00063-1.7931 0.68279-0.98026 0.98761-0.8654 1.1025 0.5598 0.55979 0.98622-0.37553 1.5412-0.93469 1.2333-1.2426zm4.2957 0.0926c-0.58688-0.70715-1.1888-1.2857-1.3376-1.2857-0.14881 0-0.49258 0.57857-0.76394 1.2857-0.2913 0.75912 0.25654 1.2857 1.3376 1.2857 1.3785 0 1.5673-0.31771 0.76394-1.2857zm-6.8222-1.5152c0-0.5853-0.63541-0.48812-1.5 0.22943-0.825 0.68469-1.5 1.4007-1.5 1.5911s0.675 0.0872 1.5-0.22943c0.825-0.31658 1.5-1.0326 1.5-1.5911zm48-1.8296c0-0.51754-0.45-0.94099-1-0.94099s-1 0.70156-1 1.559c0 0.85746 0.45 1.2809 1 0.94098s1-1.0415 1-1.559zm-4.2622 0.36733c-0.96924-0.25282-1.5311-0.83366-1.2486-1.2907 0.28249-0.45708-0.387-0.59554-1.4878-0.30769-3.1713 0.82932-2.3257 2.3017 1.2486 2.1741 1.7875-0.0638 2.457-0.32286 1.4878-0.57568zm8.2622-2.3083c0-0.55-0.7875-0.99311-1.75-0.98468-1.4956 0.0131-1.5319 0.15626-0.25 0.98468 1.8872 1.2196 2 1.2196 2 0zm6 0c0-0.55-1.2375-0.95514-2.75-0.90032l-2.75 0.0997 2.5 0.80064c1.375 0.44036 2.6125 0.8455 2.75 0.90032 0.1375 0.0548 0.25-0.35032 0.25-0.90032zm5.0818 0c0.50501 0 0.91821-0.45 0.91821-1 0-1.4479-1.336-1.2296-3.5589 0.58164-1.7763 1.4473-1.7856 1.5322-0.10934 1 1.0075-0.3199 2.245-0.58164 2.75-0.58164zm38.285-0.68939c0.8629 0.33113 1.8349 0.1717 2.1599-0.35428 0.52813-0.85452-0.79076-1.3774-2.741-1.0867-0.39271 0.0585-0.4746-0.51748-0.18198-1.28 0.3758-0.97932-0.22184-1.3429-2.0352-1.238-1.412 0.0816-2.3429 0.59844-2.0687 1.1484 0.27422 0.55 0.78629 1.8255 1.138 2.8345 0.46093 1.3225 0.8516 1.4912 1.3997 0.60428 0.41819-0.67664 1.4664-0.95933 2.3292-0.62821zm13.126-1.2992c0.35034-0.56686-0.0511-0.73451-0.94098-0.39301-1.7324 0.66479-2.0494 1.3816-0.61096 1.3816 0.51754 0 1.2159-0.44484 1.5519-0.98854zm-15.493-5.2115c0-1.6154-0.29571-1.9043-1.1129-1.0871-0.61207 0.61208-0.81052 1.6021-0.44098 2.2 1.0344 1.6737 1.5538 1.3016 1.5538-1.1129zm10 0.7c-0.68469-0.825-1.9773-1.4934-2.8724-1.4853-1.0946 0.01-0.80891 0.469 0.87244 1.402 3.3098 1.8366 3.4603 1.8428 2 0.0833zm-5 0.10699c0-0.21615-0.69837-0.661-1.5519-0.98854-0.88992-0.3415-1.2913-0.17385-0.94098 0.39301 0.58726 0.9502 2.4929 1.4054 2.4929 0.59553zm-30.75-1.2698c2.1697-0.5851 2.3128-2.3372 0.19098-2.3372-0.85746 0-1.2982 0.42192-0.97954 0.93761 0.32621 0.52782-1.1987 0.91306-3.4891 0.88145-2.2377-0.0309-4.3356 0.21088-4.662 0.53726-0.6909 0.6909 6.3627 0.67577 8.9396-0.0192z" fill="#666"/>
 </g>
</svg>
